<svg width="35" height="35" viewBox="0 0 35 35" fill="none" xmlns="http://www.w3.org/2000/svg">
<path d="M17.5001 2.91667C13.7615 2.92734 10.1698 4.37342 7.46675 6.95625V4.37501C7.46675 3.98823 7.3131 3.6173 7.03961 3.34381C6.76612 3.07032 6.39519 2.91667 6.00841 2.91667C5.62164 2.91667 5.25071 3.07032 4.97722 3.34381C4.70373 3.6173 4.55008 3.98823 4.55008 4.37501V10.9375C4.55008 11.3243 4.70373 11.6952 4.97722 11.9687C5.25071 12.2422 5.62164 12.3958 6.00841 12.3958H12.5709C12.9577 12.3958 13.3286 12.2422 13.6021 11.9687C13.8756 11.6952 14.0292 11.3243 14.0292 10.9375C14.0292 10.5507 13.8756 10.1798 13.6021 9.90631C13.3286 9.63282 12.9577 9.47917 12.5709 9.47917H9.07091C10.946 7.5197 13.4452 6.27471 16.1388 5.95827C18.8324 5.64184 21.552 6.27372 23.8302 7.74528C26.1084 9.21684 27.8027 11.4361 28.6218 14.0216C29.4409 16.607 29.3337 19.3971 28.3186 21.912C27.3035 24.427 25.4439 26.5097 23.0595 27.8021C20.6751 29.0945 17.915 29.5158 15.2536 28.9936C12.5922 28.4714 10.196 27.0383 8.47678 24.9407C6.75758 22.8431 5.8229 20.2121 5.83341 17.5C5.83341 17.1132 5.67977 16.7423 5.40628 16.4688C5.13279 16.1953 4.76186 16.0417 4.37508 16.0417C3.98831 16.0417 3.61737 16.1953 3.34388 16.4688C3.07039 16.7423 2.91675 17.1132 2.91675 17.5C2.91675 20.3843 3.77205 23.2039 5.37448 25.6021C6.97692 28.0003 9.25453 29.8695 11.9193 30.9732C14.584 32.077 17.5163 32.3658 20.3451 31.8031C23.174 31.2404 25.7725 29.8515 27.8121 27.812C29.8516 25.7725 31.2405 23.174 31.8032 20.3451C32.3659 17.5162 32.0771 14.584 30.9733 11.9192C29.8695 9.25445 28.0004 6.97684 25.6021 5.37441C23.2039 3.77197 20.3844 2.91667 17.5001 2.91667ZM17.5001 11.6667C17.1133 11.6667 16.7424 11.8203 16.4689 12.0938C16.1954 12.3673 16.0417 12.7382 16.0417 13.125V17.5C16.0417 17.8868 16.1954 18.2577 16.4689 18.5312C16.7424 18.8047 17.1133 18.9583 17.5001 18.9583H20.4167C20.8035 18.9583 21.1745 18.8047 21.4479 18.5312C21.7214 18.2577 21.8751 17.8868 21.8751 17.5C21.8751 17.1132 21.7214 16.7423 21.4479 16.4688C21.1745 16.1953 20.8035 16.0417 20.4167 16.0417H18.9584V13.125C18.9584 12.7382 18.8048 12.3673 18.5313 12.0938C18.2578 11.8203 17.8869 11.6667 17.5001 11.6667Z" fill="#D1D5DB"/>
</svg>
