<svg width="36" height="36" viewBox="0 0 36 36" fill="none" xmlns="http://www.w3.org/2000/svg">
<mask id="path-1-inside-1_38_20638" fill="white">
<path d="M29.4354 18.7263C29.1982 18.4563 29.0674 18.1093 29.0674 17.75C29.0674 17.3907 29.1982 17.0437 29.4354 16.7738L31.3287 14.6438C31.5373 14.411 31.6669 14.1182 31.6988 13.8073C31.7307 13.4964 31.6632 13.1834 31.5062 12.9131L28.5479 7.79522C28.3924 7.5253 28.1557 7.31135 27.8715 7.18386C27.5873 7.05637 27.2701 7.02185 26.9652 7.08522L24.1843 7.6473C23.8305 7.72041 23.4621 7.66148 23.1487 7.48163C22.8354 7.30178 22.5987 7.01345 22.4833 6.67105L21.581 3.96417C21.4818 3.67038 21.2927 3.4152 21.0405 3.23471C20.7884 3.05422 20.4859 2.95754 20.1758 2.95834H14.2591C13.9366 2.94151 13.6174 3.03071 13.3503 3.21233C13.0832 3.39396 12.8829 3.65802 12.7799 3.96417L11.9516 6.67105C11.8362 7.01345 11.5995 7.30178 11.2862 7.48163C10.9728 7.66148 10.6044 7.72041 10.2506 7.6473L7.39578 7.08522C7.10668 7.04436 6.81195 7.08998 6.54873 7.21633C6.28551 7.34268 6.06557 7.5441 5.91662 7.79522L2.95828 12.9131C2.79729 13.1803 2.7249 13.4916 2.75147 13.8024C2.77803 14.1133 2.9022 14.4077 3.1062 14.6438L4.98474 16.7738C5.22188 17.0437 5.35266 17.3907 5.35266 17.75C5.35266 18.1093 5.22188 18.4563 4.98474 18.7263L3.1062 20.8563C2.9022 21.0923 2.77803 21.3867 2.75147 21.6976C2.7249 22.0084 2.79729 22.3197 2.95828 22.5869L5.91662 27.7048C6.07207 27.9747 6.30877 28.1887 6.59297 28.3162C6.87716 28.4437 7.19436 28.4782 7.49932 28.4148L10.2802 27.8527C10.634 27.7796 11.0024 27.8385 11.3157 28.0184C11.6291 28.1982 11.8658 28.4866 11.9812 28.829L12.8835 31.5358C12.9864 31.842 13.1867 32.1061 13.4538 32.2877C13.7209 32.4693 14.0401 32.5585 14.3627 32.5417H20.2793C20.5894 32.5425 20.8919 32.4458 21.1441 32.2653C21.3962 32.0848 21.5853 31.8296 21.6845 31.5358L22.5868 28.829C22.7022 28.4866 22.9389 28.1982 23.2523 28.0184C23.5657 27.8385 23.934 27.7796 24.2879 27.8527L27.0687 28.4148C27.3737 28.4782 27.6909 28.4437 27.9751 28.3162C28.2593 28.1887 28.496 27.9747 28.6514 27.7048L31.6097 22.5869C31.7668 22.3167 31.8342 22.0036 31.8023 21.6927C31.7704 21.3818 31.6409 21.089 31.4322 20.8563L29.4354 18.7263ZM27.2314 20.7083L28.4147 22.0396L26.5214 25.3233L24.776 24.9683C23.7107 24.7506 22.6025 24.9315 21.6617 25.4769C20.721 26.0222 20.0133 26.894 19.6729 27.9267L19.1108 29.5833H15.3241L14.7916 27.8971C14.4512 26.8644 13.7435 25.9926 12.8027 25.4473C11.862 24.902 10.7538 24.721 9.68849 24.9388L7.94307 25.2938L6.02016 22.0248L7.20349 20.6936C7.93117 19.88 8.33347 18.8267 8.33347 17.7352C8.33347 16.6437 7.93117 15.5905 7.20349 14.7769L6.02016 13.4456L7.91349 10.1915L9.65891 10.5465C10.7242 10.7642 11.8324 10.5833 12.7732 10.0379C13.7139 9.49258 14.4216 8.62083 14.762 7.58813L15.3241 5.91667H19.1108L19.6729 7.60292C20.0133 8.63562 20.721 9.50738 21.6617 10.0527C22.6025 10.5981 23.7107 10.779 24.776 10.5613L26.5214 10.2063L28.4147 13.49L27.2314 14.8213C26.5119 15.633 26.1146 16.6801 26.1146 17.7648C26.1146 18.8495 26.5119 19.8966 27.2314 20.7083ZM17.2174 11.8333C16.0472 11.8333 14.9033 12.1803 13.9303 12.8305C12.9573 13.4806 12.199 14.4047 11.7512 15.4858C11.3033 16.5669 11.1862 17.7566 11.4145 18.9043C11.6428 20.052 12.2063 21.1063 13.0337 21.9337C13.8612 22.7612 14.9154 23.3247 16.0632 23.553C17.2109 23.7813 18.4005 23.6641 19.4817 23.2163C20.5628 22.7685 21.4868 22.0101 22.137 21.0371C22.7871 20.0641 23.1341 18.9202 23.1341 17.75C23.1341 16.1808 22.5108 14.6759 21.4012 13.5663C20.2916 12.4567 18.7866 11.8333 17.2174 11.8333ZM17.2174 20.7083C16.6323 20.7083 16.0604 20.5348 15.5739 20.2098C15.0874 19.8847 14.7082 19.4227 14.4843 18.8821C14.2604 18.3415 14.2018 17.7467 14.316 17.1729C14.4301 16.599 14.7119 16.0719 15.1256 15.6582C15.5393 15.2444 16.0664 14.9627 16.6403 14.8485C17.2142 14.7344 17.809 14.793 18.3496 15.0169C18.8901 15.2408 19.3521 15.62 19.6772 16.1064C20.0023 16.5929 20.1758 17.1649 20.1758 17.75C20.1758 18.5346 19.8641 19.2871 19.3093 19.8419C18.7545 20.3967 18.002 20.7083 17.2174 20.7083Z"/>
</mask>
<path d="M29.4354 18.7263C29.1982 18.4563 29.0674 18.1093 29.0674 17.75C29.0674 17.3907 29.1982 17.0437 29.4354 16.7738L31.3287 14.6438C31.5373 14.411 31.6669 14.1182 31.6988 13.8073C31.7307 13.4964 31.6632 13.1834 31.5062 12.9131L28.5479 7.79522C28.3924 7.5253 28.1557 7.31135 27.8715 7.18386C27.5873 7.05637 27.2701 7.02185 26.9652 7.08522L24.1843 7.6473C23.8305 7.72041 23.4621 7.66148 23.1487 7.48163C22.8354 7.30178 22.5987 7.01345 22.4833 6.67105L21.581 3.96417C21.4818 3.67038 21.2927 3.4152 21.0405 3.23471C20.7884 3.05422 20.4859 2.95754 20.1758 2.95834H14.2591C13.9366 2.94151 13.6174 3.03071 13.3503 3.21233C13.0832 3.39396 12.8829 3.65802 12.7799 3.96417L11.9516 6.67105C11.8362 7.01345 11.5995 7.30178 11.2862 7.48163C10.9728 7.66148 10.6044 7.72041 10.2506 7.6473L7.39578 7.08522C7.10668 7.04436 6.81195 7.08998 6.54873 7.21633C6.28551 7.34268 6.06557 7.5441 5.91662 7.79522L2.95828 12.9131C2.79729 13.1803 2.7249 13.4916 2.75147 13.8024C2.77803 14.1133 2.9022 14.4077 3.1062 14.6438L4.98474 16.7738C5.22188 17.0437 5.35266 17.3907 5.35266 17.75C5.35266 18.1093 5.22188 18.4563 4.98474 18.7263L3.1062 20.8563C2.9022 21.0923 2.77803 21.3867 2.75147 21.6976C2.7249 22.0084 2.79729 22.3197 2.95828 22.5869L5.91662 27.7048C6.07207 27.9747 6.30877 28.1887 6.59297 28.3162C6.87716 28.4437 7.19436 28.4782 7.49932 28.4148L10.2802 27.8527C10.634 27.7796 11.0024 27.8385 11.3157 28.0184C11.6291 28.1982 11.8658 28.4866 11.9812 28.829L12.8835 31.5358C12.9864 31.842 13.1867 32.1061 13.4538 32.2877C13.7209 32.4693 14.0401 32.5585 14.3627 32.5417H20.2793C20.5894 32.5425 20.8919 32.4458 21.1441 32.2653C21.3962 32.0848 21.5853 31.8296 21.6845 31.5358L22.5868 28.829C22.7022 28.4866 22.9389 28.1982 23.2523 28.0184C23.5657 27.8385 23.934 27.7796 24.2879 27.8527L27.0687 28.4148C27.3737 28.4782 27.6909 28.4437 27.9751 28.3162C28.2593 28.1887 28.496 27.9747 28.6514 27.7048L31.6097 22.5869C31.7668 22.3167 31.8342 22.0036 31.8023 21.6927C31.7704 21.3818 31.6409 21.089 31.4322 20.8563L29.4354 18.7263ZM27.2314 20.7083L28.4147 22.0396L26.5214 25.3233L24.776 24.9683C23.7107 24.7506 22.6025 24.9315 21.6617 25.4769C20.721 26.0222 20.0133 26.894 19.6729 27.9267L19.1108 29.5833H15.3241L14.7916 27.8971C14.4512 26.8644 13.7435 25.9926 12.8027 25.4473C11.862 24.902 10.7538 24.721 9.68849 24.9388L7.94307 25.2938L6.02016 22.0248L7.20349 20.6936C7.93117 19.88 8.33347 18.8267 8.33347 17.7352C8.33347 16.6437 7.93117 15.5905 7.20349 14.7769L6.02016 13.4456L7.91349 10.1915L9.65891 10.5465C10.7242 10.7642 11.8324 10.5833 12.7732 10.0379C13.7139 9.49258 14.4216 8.62083 14.762 7.58813L15.3241 5.91667H19.1108L19.6729 7.60292C20.0133 8.63562 20.721 9.50738 21.6617 10.0527C22.6025 10.5981 23.7107 10.779 24.776 10.5613L26.5214 10.2063L28.4147 13.49L27.2314 14.8213C26.5119 15.633 26.1146 16.6801 26.1146 17.7648C26.1146 18.8495 26.5119 19.8966 27.2314 20.7083ZM17.2174 11.8333C16.0472 11.8333 14.9033 12.1803 13.9303 12.8305C12.9573 13.4806 12.199 14.4047 11.7512 15.4858C11.3033 16.5669 11.1862 17.7566 11.4145 18.9043C11.6428 20.052 12.2063 21.1063 13.0337 21.9337C13.8612 22.7612 14.9154 23.3247 16.0632 23.553C17.2109 23.7813 18.4005 23.6641 19.4817 23.2163C20.5628 22.7685 21.4868 22.0101 22.137 21.0371C22.7871 20.0641 23.1341 18.9202 23.1341 17.75C23.1341 16.1808 22.5108 14.6759 21.4012 13.5663C20.2916 12.4567 18.7866 11.8333 17.2174 11.8333ZM17.2174 20.7083C16.6323 20.7083 16.0604 20.5348 15.5739 20.2098C15.0874 19.8847 14.7082 19.4227 14.4843 18.8821C14.2604 18.3415 14.2018 17.7467 14.316 17.1729C14.4301 16.599 14.7119 16.0719 15.1256 15.6582C15.5393 15.2444 16.0664 14.9627 16.6403 14.8485C17.2142 14.7344 17.809 14.793 18.3496 15.0169C18.8901 15.2408 19.3521 15.62 19.6772 16.1064C20.0023 16.5929 20.1758 17.1649 20.1758 17.75C20.1758 18.5346 19.8641 19.2871 19.3093 19.8419C18.7545 20.3967 18.002 20.7083 17.2174 20.7083Z" stroke="#D1D5DB" stroke-width="2.95833" mask="url(#path-1-inside-1_38_20638)"/>
</svg>
