<svg width="35" height="35" viewBox="0 0 35 35" fill="none" xmlns="http://www.w3.org/2000/svg">
<path d="M4.38462 6.76944C3.75218 6.76944 3.14564 7.02067 2.69844 7.46787C2.25124 7.91507 2 8.5216 2 9.15404V30.6154C2 31.2478 2.25124 31.8544 2.69844 32.3016C3.14564 32.7488 3.75218 33 4.38462 33H30.6154C31.2478 33 31.8544 32.7488 32.3016 32.3016C32.7488 31.8544 33 31.2478 33 30.6154V9.15404C33 8.5216 32.7488 7.91507 32.3016 7.46787C31.8544 7.02067 31.2478 6.76944 30.6154 6.76944H25.8462" stroke="#D1D5DB" stroke-width="2.21429" stroke-linecap="round" stroke-linejoin="round"/>
<path d="M9.15405 2V11.5384" stroke="#D1D5DB" stroke-width="2.21429" stroke-linecap="round" stroke-linejoin="round"/>
<path d="M25.8464 2V11.5384" stroke="#D1D5DB" stroke-width="2.21429" stroke-linecap="round" stroke-linejoin="round"/>
<path d="M9.15405 6.76944H21.0771" stroke="#D1D5DB" stroke-width="2.21429" stroke-linecap="round" stroke-linejoin="round"/>
<path d="M9.15373 19.8849C9.81222 19.8849 10.346 19.3511 10.346 18.6926C10.346 18.0341 9.81222 17.5003 9.15373 17.5003C8.49524 17.5003 7.96143 18.0341 7.96143 18.6926C7.96143 19.3511 8.49524 19.8849 9.15373 19.8849Z" stroke="#D1D5DB" stroke-width="2.21429" stroke-linecap="round" stroke-linejoin="round"/>
<path d="M17.5004 19.8849C18.1589 19.8849 18.6927 19.3511 18.6927 18.6926C18.6927 18.0341 18.1589 17.5003 17.5004 17.5003C16.8419 17.5003 16.3081 18.0341 16.3081 18.6926C16.3081 19.3511 16.8419 19.8849 17.5004 19.8849Z" stroke="#D1D5DB" stroke-width="2.21429" stroke-linecap="round" stroke-linejoin="round"/>
<path d="M25.8459 19.8849C26.5044 19.8849 27.0382 19.3511 27.0382 18.6926C27.0382 18.0341 26.5044 17.5003 25.8459 17.5003C25.1874 17.5003 24.6536 18.0341 24.6536 18.6926C24.6536 19.3511 25.1874 19.8849 25.8459 19.8849Z" stroke="#D1D5DB" stroke-width="2.21429" stroke-linecap="round" stroke-linejoin="round"/>
<path d="M9.15373 27.0384C9.81222 27.0384 10.346 26.5046 10.346 25.8461C10.346 25.1876 9.81222 24.6538 9.15373 24.6538C8.49524 24.6538 7.96143 25.1876 7.96143 25.8461C7.96143 26.5046 8.49524 27.0384 9.15373 27.0384Z" stroke="#D1D5DB" stroke-width="2.21429" stroke-linecap="round" stroke-linejoin="round"/>
</svg>
