<svg width="36" height="36" viewBox="0 0 36 36" fill="none" xmlns="http://www.w3.org/2000/svg">
<path d="M30 12L21 4.10999C20.175 3.37206 19.1069 2.9641 18 2.9641C16.8931 2.9641 15.825 3.37206 15 4.10999L6 12C5.52356 12.4261 5.14335 12.9488 4.88471 13.5334C4.62607 14.1179 4.49492 14.7508 4.5 15.39V28.5C4.5 29.6935 4.97411 30.8381 5.81802 31.682C6.66194 32.5259 7.80653 33 9 33H27C28.1935 33 29.3381 32.5259 30.182 31.682C31.0259 30.8381 31.5 29.6935 31.5 28.5V15.375C31.503 14.7383 31.3708 14.1083 31.1122 13.5265C30.8536 12.9447 30.4746 12.4244 30 12ZM21 30H15V22.5C15 22.1022 15.158 21.7206 15.4393 21.4393C15.7206 21.158 16.1022 21 16.5 21H19.5C19.8978 21 20.2794 21.158 20.5607 21.4393C20.842 21.7206 21 22.1022 21 22.5V30ZM28.5 28.5C28.5 28.8978 28.342 29.2794 28.0607 29.5607C27.7794 29.842 27.3978 30 27 30H24V22.5C24 21.3065 23.5259 20.1619 22.682 19.318C21.8381 18.4741 20.6935 18 19.5 18H16.5C15.3065 18 14.1619 18.4741 13.318 19.318C12.4741 20.1619 12 21.3065 12 22.5V30H9C8.60218 30 8.22065 29.842 7.93935 29.5607C7.65804 29.2794 7.50001 28.8978 7.50001 28.5V15.375C7.50027 15.162 7.54589 14.9515 7.63383 14.7576C7.72177 14.5636 7.85 14.3906 8.01001 14.25L17.01 6.37499C17.2837 6.13452 17.6356 6.00189 18 6.00189C18.3644 6.00189 18.7163 6.13452 18.99 6.37499L27.99 14.25C28.15 14.3906 28.2782 14.5636 28.3662 14.7576C28.4541 14.9515 28.4997 15.162 28.5 15.375V28.5Z" fill="#FF7594"/>
</svg>
