<svg width="35" height="35" viewBox="0 0 35 35" fill="none" xmlns="http://www.w3.org/2000/svg">
<path d="M4.38462 6.76944C3.75218 6.76944 3.14564 7.02067 2.69844 7.46787C2.25124 7.91507 2 8.5216 2 9.15404V30.6154C2 31.2478 2.25124 31.8544 2.69844 32.3016C3.14564 32.7488 3.75218 33 4.38462 33H30.6154C31.2478 33 31.8544 32.7488 32.3016 32.3016C32.7488 31.8544 33 31.2478 33 30.6154V9.15404C33 8.5216 32.7488 7.91507 32.3016 7.46787C31.8544 7.02067 31.2478 6.76944 30.6154 6.76944H25.8462" stroke="#2E1619" stroke-width="2.21429" stroke-linecap="round" stroke-linejoin="round"/>
<path d="M9.15399 2V11.5384" stroke="#2E1619" stroke-width="2.21429" stroke-linecap="round" stroke-linejoin="round"/>
<path d="M25.8463 2V11.5384" stroke="#2E1619" stroke-width="2.21429" stroke-linecap="round" stroke-linejoin="round"/>
<path d="M9.15399 6.76944H21.077" stroke="#2E1619" stroke-width="2.21429" stroke-linecap="round" stroke-linejoin="round"/>
<path d="M9.15364 19.8849C9.81213 19.8849 10.3459 19.3511 10.3459 18.6926C10.3459 18.0342 9.81213 17.5004 9.15364 17.5004C8.49515 17.5004 7.96134 18.0342 7.96134 18.6926C7.96134 19.3511 8.49515 19.8849 9.15364 19.8849Z" stroke="#2E1619" stroke-width="2.21429" stroke-linecap="round" stroke-linejoin="round"/>
<path d="M17.5003 19.8849C18.1588 19.8849 18.6926 19.3511 18.6926 18.6926C18.6926 18.0342 18.1588 17.5004 17.5003 17.5004C16.8418 17.5004 16.308 18.0342 16.308 18.6926C16.308 19.3511 16.8418 19.8849 17.5003 19.8849Z" stroke="#2E1619" stroke-width="2.21429" stroke-linecap="round" stroke-linejoin="round"/>
<path d="M25.846 19.8849C26.5045 19.8849 27.0383 19.3511 27.0383 18.6926C27.0383 18.0342 26.5045 17.5004 25.846 17.5004C25.1875 17.5004 24.6537 18.0342 24.6537 18.6926C24.6537 19.3511 25.1875 19.8849 25.846 19.8849Z" stroke="#2E1619" stroke-width="2.21429" stroke-linecap="round" stroke-linejoin="round"/>
<path d="M9.15364 27.0384C9.81213 27.0384 10.3459 26.5046 10.3459 25.8461C10.3459 25.1876 9.81213 24.6538 9.15364 24.6538C8.49515 24.6538 7.96134 25.1876 7.96134 25.8461C7.96134 26.5046 8.49515 27.0384 9.15364 27.0384Z" stroke="#2E1619" stroke-width="2.21429" stroke-linecap="round" stroke-linejoin="round"/>
</svg>
