<svg width="41" height="40" viewBox="0 0 41 40" fill="none" xmlns="http://www.w3.org/2000/svg">
<path d="M0 5C0 2.23858 2.23858 0 5 0H36C38.7614 0 41 2.23858 41 5V35C41 37.7614 38.7614 40 36 40H5C2.23858 40 0 37.7614 0 35V5Z" fill="#FF2D2D" fill-opacity="0.6"/>
<path d="M14.1694 21.6267C14.7593 18.2684 18.5233 13.4118 20.3315 11.4033C22.3705 13.2897 23.7941 16.105 24.251 17.2768L20.4958 19.3462L20.451 24.4844L24.6305 27.3238C23.8438 28.2512 21.71 30.1012 19.4678 30.0816C16.6652 30.0571 13.4321 25.8246 14.1694 21.6267Z" fill="white"/>
<path d="M24.9436 18.2172L21.424 20.0551L21.3914 23.7919L24.8764 25.9245L28.1604 24.3182L27.9615 20.3457L24.9436 18.2172Z" fill="white"/>
<path d="M24.991 18.1531L25.1859 17.862L25.0188 17.7501L24.838 17.8379L24.991 18.1531ZM28.1955 20.2989L28.5459 20.302L28.5475 20.113L28.3905 20.0078L28.1955 20.2989ZM21.3359 19.9272L21.1829 19.612L20.9874 19.7069L20.9855 19.9241L21.3359 19.9272ZM28.1598 24.3931L28.3258 24.7016L28.5083 24.6034L28.5101 24.3962L28.1598 24.3931ZM24.8018 26.1993L24.61 26.4925L24.7843 26.6065L24.9678 26.5078L24.8018 26.1993ZM21.3011 23.9097L20.9508 23.9066L20.9491 24.0981L21.1093 24.2029L21.3011 23.9097ZM14.1564 23.1337L13.8061 23.1306L14.1564 23.1337ZM20.363 11.0532L20.6248 10.8204L20.3667 10.5302L20.1045 10.8168L20.363 11.0532ZM20.1979 29.9691L20.2036 30.3194L20.1979 29.9691ZM24.6319 27.1861L24.8853 27.428L25.1805 27.1187L24.8192 26.8901L24.6319 27.1861ZM20.3529 24.4779L20.0027 24.4664L19.9961 24.6667L20.1655 24.7739L20.3529 24.4779ZM20.5254 19.2452L20.3501 18.9419L20.1817 19.0393L20.1753 19.2337L20.5254 19.2452ZM24.2109 17.1154L24.3862 17.4188L24.6673 17.2563L24.5266 16.9636L24.2109 17.1154ZM16.543 24.7141C16.528 24.5211 16.3595 24.3769 16.1666 24.3918C15.9737 24.4068 15.8294 24.5753 15.8444 24.7682L16.543 24.7141ZM19.7876 28.7791C19.9811 28.7808 20.1394 28.6253 20.141 28.4319C20.1427 28.2384 19.9872 28.0802 19.7938 28.0785L19.7876 28.7791ZM24.796 18.4442L28.0006 20.59L28.3905 20.0078L25.1859 17.862L24.796 18.4442ZM28.0507 19.9799L24.6951 21.5037L24.9848 22.1417L28.3404 20.6179L28.0507 19.9799ZM25.0067 21.5146L21.5025 19.619L21.1692 20.2353L24.6733 22.1309L25.0067 21.5146ZM21.4888 20.2424L25.1439 18.4683L24.838 17.8379L21.1829 19.612L21.4888 20.2424ZM27.8452 20.2959L27.8095 24.39L28.5101 24.3962L28.5459 20.302L27.8452 20.2959ZM27.9939 24.0845L24.6358 25.8907L24.9678 26.5078L28.3258 24.7016L27.9939 24.0845ZM25.1521 26.2023L25.1903 21.8258L24.4897 21.8197L24.4515 26.1962L25.1521 26.2023ZM24.9936 25.9061L21.4929 23.6165L21.1093 24.2029L24.61 26.4925L24.9936 25.9061ZM21.6514 23.9127L21.6862 19.9302L20.9855 19.9241L20.9508 23.9066L21.6514 23.9127ZM14.5068 23.1367C14.5251 21.0397 15.6098 18.5517 16.9378 16.3232C18.2589 14.1064 19.7863 12.2027 20.6215 11.2897L20.1045 10.8168C19.2405 11.7612 17.6837 13.7029 16.3359 15.9645C14.995 18.2145 13.8261 20.838 13.8061 23.1306L14.5068 23.1367ZM20.1923 29.6188C18.1981 29.651 16.7844 28.7717 15.8612 27.5214C14.929 26.2589 14.4939 24.6103 14.5068 23.1367L13.8061 23.1306C13.7922 24.7302 14.2608 26.5335 15.2975 27.9376C16.3432 29.3537 17.9636 30.3556 20.2036 30.3194L20.1923 29.6188ZM24.6319 27.1861C24.3784 26.9442 24.3785 26.9442 24.3785 26.9441C24.3785 26.9441 24.3785 26.9441 24.3785 26.9441C24.3784 26.9442 24.3784 26.9442 24.3783 26.9444C24.3781 26.9446 24.3777 26.945 24.3772 26.9455C24.3761 26.9466 24.3744 26.9483 24.3721 26.9507C24.3676 26.9555 24.3605 26.9627 24.3512 26.9723C24.3324 26.9915 24.3043 27.0201 24.2677 27.0567C24.1945 27.1299 24.0872 27.2351 23.9527 27.3618C23.6833 27.6154 23.3065 27.9532 22.8757 28.2909C22.4438 28.6295 21.9644 28.9628 21.4897 29.2116C21.0094 29.4634 20.5639 29.6128 20.1923 29.6188L20.2036 30.3194C20.7346 30.3108 21.2946 30.105 21.815 29.8322C22.3408 29.5565 22.8571 29.1958 23.308 28.8424C23.76 28.488 24.1532 28.1355 24.4331 27.8719C24.5732 27.7399 24.6855 27.6298 24.763 27.5523C24.8018 27.5135 24.832 27.4829 24.8526 27.4617C24.8629 27.4512 24.8709 27.443 24.8764 27.4373C24.8791 27.4344 24.8812 27.4322 24.8827 27.4307C24.8835 27.4299 24.884 27.4293 24.8845 27.4288C24.8847 27.4286 24.8849 27.4284 24.885 27.4283C24.8851 27.4282 24.8851 27.4282 24.8852 27.4281C24.8852 27.4281 24.8853 27.428 24.6319 27.1861ZM20.1655 24.7739L24.4445 27.4821L24.8192 26.8901L20.5403 24.1819L20.1655 24.7739ZM20.1753 19.2337L20.0027 24.4664L20.7031 24.4894L20.8756 19.2568L20.1753 19.2337ZM24.0356 16.8121L20.3501 18.9419L20.7007 19.5486L24.3862 17.4188L24.0356 16.8121ZM20.1012 11.2861C20.9859 12.2808 22.633 14.6425 23.8951 17.2672L24.5266 16.9636C23.2403 14.2885 21.5586 11.8705 20.6248 10.8204L20.1012 11.2861ZM15.8444 24.7682C15.8955 25.4279 16.1482 26.4097 16.7501 27.2394C17.362 28.0829 18.336 28.7665 19.7876 28.7791L19.7938 28.0785C18.5947 28.068 17.8175 27.5175 17.3172 26.8279C16.8069 26.1244 16.5864 25.274 16.543 24.7141L15.8444 24.7682Z" fill="#EDEBEB"/>
</svg>
