<svg width="36" height="36" viewBox="0 0 36 36" fill="none" xmlns="http://www.w3.org/2000/svg">
<mask id="path-1-inside-1_2_10311" fill="white">
<path d="M29.4354 18.7262C29.1983 18.4563 29.0675 18.1093 29.0675 17.75C29.0675 17.3907 29.1983 17.0437 29.4354 16.7737L31.3288 14.6437C31.5374 14.411 31.667 14.1182 31.6989 13.8073C31.7307 13.4964 31.6633 13.1833 31.5063 12.9131L28.5479 7.79519C28.3925 7.52527 28.1558 7.31132 27.8716 7.18383C27.5874 7.05633 27.2702 7.02182 26.9652 7.08519L24.1844 7.64727C23.8306 7.72038 23.4622 7.66145 23.1488 7.4816C22.8354 7.30175 22.5987 7.01342 22.4834 6.67102L21.5811 3.96414C21.4818 3.67035 21.2928 3.41517 21.0406 3.23468C20.7885 3.05419 20.486 2.95751 20.1759 2.95831H14.2592C13.9366 2.94147 13.6174 3.03068 13.3503 3.2123C13.0832 3.39393 12.8829 3.65798 12.78 3.96414L11.9517 6.67102C11.8363 7.01342 11.5996 7.30175 11.2862 7.4816C10.9729 7.66145 10.6045 7.72038 10.2506 7.64727L7.39586 7.08519C7.10676 7.04433 6.81203 7.08995 6.54881 7.2163C6.28559 7.34264 6.06565 7.54406 5.91669 7.79519L2.95836 12.9131C2.79737 13.1803 2.72498 13.4916 2.75154 13.8024C2.77811 14.1132 2.90227 14.4077 3.10627 14.6437L4.98482 16.7737C5.22196 17.0437 5.35274 17.3907 5.35274 17.75C5.35274 18.1093 5.22196 18.4563 4.98482 18.7262L3.10627 20.8562C2.90227 21.0922 2.77811 21.3867 2.75154 21.6975C2.72498 22.0084 2.79737 22.3196 2.95836 22.5869L5.91669 27.7048C6.07215 27.9747 6.30885 28.1886 6.59304 28.3161C6.87724 28.4436 7.19443 28.4781 7.4994 28.4148L10.2802 27.8527C10.6341 27.7796 11.0024 27.8385 11.3158 28.0184C11.6292 28.1982 11.8659 28.4865 11.9813 28.8289L12.8836 31.5358C12.9865 31.842 13.1868 32.106 13.4539 32.2877C13.721 32.4693 14.0402 32.5585 14.3627 32.5416H20.2794C20.5895 32.5424 20.892 32.4458 21.1442 32.2653C21.3963 32.0848 21.5854 31.8296 21.6846 31.5358L22.5869 28.8289C22.7023 28.4865 22.939 28.1982 23.2524 28.0184C23.5657 27.8385 23.9341 27.7796 24.2879 27.8527L27.0688 28.4148C27.3737 28.4781 27.6909 28.4436 27.9751 28.3161C28.2593 28.1886 28.496 27.9747 28.6515 27.7048L31.6098 22.5869C31.7669 22.3166 31.8343 22.0036 31.8024 21.6927C31.7705 21.3818 31.641 21.0889 31.4323 20.8562L29.4354 18.7262ZM27.2315 20.7083L28.4148 22.0396L26.5215 25.3233L24.7761 24.9683C23.7107 24.7505 22.6025 24.9315 21.6618 25.4769C20.7211 26.0222 20.0134 26.894 19.6729 27.9266L19.1109 29.5833H15.3242L14.7917 27.8971C14.4513 26.8644 13.7435 25.9926 12.8028 25.4473C11.8621 24.9019 10.7539 24.721 9.68857 24.9387L7.94315 25.2937L6.02023 22.0248L7.20357 20.6935C7.93125 19.8799 8.33355 18.8267 8.33355 17.7352C8.33355 16.6437 7.93125 15.5904 7.20357 14.7769L6.02023 13.4456L7.91357 10.1914L9.65898 10.5464C10.7243 10.7642 11.8325 10.5832 12.7732 10.0379C13.7139 9.49255 14.4217 8.6208 14.7621 7.5881L15.3242 5.91664H19.1109L19.6729 7.60289C20.0134 8.63559 20.7211 9.50735 21.6618 10.0527C22.6025 10.598 23.7107 10.779 24.7761 10.5612L26.5215 10.2062L28.4148 13.49L27.2315 14.8212C26.512 15.6329 26.1147 16.6801 26.1147 17.7648C26.1147 18.8495 26.512 19.8966 27.2315 20.7083ZM17.2175 11.8333C16.0473 11.8333 14.9034 12.1803 13.9304 12.8304C12.9574 13.4806 12.1991 14.4046 11.7512 15.4858C11.3034 16.5669 11.1862 17.7565 11.4145 18.9043C11.6428 20.052 12.2063 21.1062 13.0338 21.9337C13.8613 22.7612 14.9155 23.3247 16.0632 23.553C17.211 23.7813 18.4006 23.6641 19.4817 23.2163C20.5629 22.7684 21.4869 22.0101 22.1371 21.0371C22.7872 20.0641 23.1342 18.9202 23.1342 17.75C23.1342 16.1808 22.5108 14.6759 21.4012 13.5663C20.2916 12.4567 18.7867 11.8333 17.2175 11.8333ZM17.2175 20.7083C16.6324 20.7083 16.0605 20.5348 15.574 20.2097C15.0875 19.8847 14.7083 19.4226 14.4844 18.8821C14.2605 18.3415 14.2019 17.7467 14.316 17.1728C14.4302 16.599 14.7119 16.0719 15.1257 15.6581C15.5394 15.2444 16.0665 14.9626 16.6404 14.8485C17.2142 14.7343 17.8091 14.7929 18.3496 15.0168C18.8902 15.2407 19.3522 15.6199 19.6773 16.1064C20.0024 16.5929 20.1759 17.1649 20.1759 17.75C20.1759 18.5346 19.8642 19.287 19.3094 19.8418C18.7546 20.3966 18.0021 20.7083 17.2175 20.7083Z"/>
</mask>
<path d="M29.4354 18.7262C29.1983 18.4563 29.0675 18.1093 29.0675 17.75C29.0675 17.3907 29.1983 17.0437 29.4354 16.7737L31.3288 14.6437C31.5374 14.411 31.667 14.1182 31.6989 13.8073C31.7307 13.4964 31.6633 13.1833 31.5063 12.9131L28.5479 7.79519C28.3925 7.52527 28.1558 7.31132 27.8716 7.18383C27.5874 7.05633 27.2702 7.02182 26.9652 7.08519L24.1844 7.64727C23.8306 7.72038 23.4622 7.66145 23.1488 7.4816C22.8354 7.30175 22.5987 7.01342 22.4834 6.67102L21.5811 3.96414C21.4818 3.67035 21.2928 3.41517 21.0406 3.23468C20.7885 3.05419 20.486 2.95751 20.1759 2.95831H14.2592C13.9366 2.94147 13.6174 3.03068 13.3503 3.2123C13.0832 3.39393 12.8829 3.65798 12.78 3.96414L11.9517 6.67102C11.8363 7.01342 11.5996 7.30175 11.2862 7.4816C10.9729 7.66145 10.6045 7.72038 10.2506 7.64727L7.39586 7.08519C7.10676 7.04433 6.81203 7.08995 6.54881 7.2163C6.28559 7.34264 6.06565 7.54406 5.91669 7.79519L2.95836 12.9131C2.79737 13.1803 2.72498 13.4916 2.75154 13.8024C2.77811 14.1132 2.90227 14.4077 3.10627 14.6437L4.98482 16.7737C5.22196 17.0437 5.35274 17.3907 5.35274 17.75C5.35274 18.1093 5.22196 18.4563 4.98482 18.7262L3.10627 20.8562C2.90227 21.0922 2.77811 21.3867 2.75154 21.6975C2.72498 22.0084 2.79737 22.3196 2.95836 22.5869L5.91669 27.7048C6.07215 27.9747 6.30885 28.1886 6.59304 28.3161C6.87724 28.4436 7.19443 28.4781 7.4994 28.4148L10.2802 27.8527C10.6341 27.7796 11.0024 27.8385 11.3158 28.0184C11.6292 28.1982 11.8659 28.4865 11.9813 28.8289L12.8836 31.5358C12.9865 31.842 13.1868 32.106 13.4539 32.2877C13.721 32.4693 14.0402 32.5585 14.3627 32.5416H20.2794C20.5895 32.5424 20.892 32.4458 21.1442 32.2653C21.3963 32.0848 21.5854 31.8296 21.6846 31.5358L22.5869 28.8289C22.7023 28.4865 22.939 28.1982 23.2524 28.0184C23.5657 27.8385 23.9341 27.7796 24.2879 27.8527L27.0688 28.4148C27.3737 28.4781 27.6909 28.4436 27.9751 28.3161C28.2593 28.1886 28.496 27.9747 28.6515 27.7048L31.6098 22.5869C31.7669 22.3166 31.8343 22.0036 31.8024 21.6927C31.7705 21.3818 31.641 21.0889 31.4323 20.8562L29.4354 18.7262ZM27.2315 20.7083L28.4148 22.0396L26.5215 25.3233L24.7761 24.9683C23.7107 24.7505 22.6025 24.9315 21.6618 25.4769C20.7211 26.0222 20.0134 26.894 19.6729 27.9266L19.1109 29.5833H15.3242L14.7917 27.8971C14.4513 26.8644 13.7435 25.9926 12.8028 25.4473C11.8621 24.9019 10.7539 24.721 9.68857 24.9387L7.94315 25.2937L6.02023 22.0248L7.20357 20.6935C7.93125 19.8799 8.33355 18.8267 8.33355 17.7352C8.33355 16.6437 7.93125 15.5904 7.20357 14.7769L6.02023 13.4456L7.91357 10.1914L9.65898 10.5464C10.7243 10.7642 11.8325 10.5832 12.7732 10.0379C13.7139 9.49255 14.4217 8.6208 14.7621 7.5881L15.3242 5.91664H19.1109L19.6729 7.60289C20.0134 8.63559 20.7211 9.50735 21.6618 10.0527C22.6025 10.598 23.7107 10.779 24.7761 10.5612L26.5215 10.2062L28.4148 13.49L27.2315 14.8212C26.512 15.6329 26.1147 16.6801 26.1147 17.7648C26.1147 18.8495 26.512 19.8966 27.2315 20.7083ZM17.2175 11.8333C16.0473 11.8333 14.9034 12.1803 13.9304 12.8304C12.9574 13.4806 12.1991 14.4046 11.7512 15.4858C11.3034 16.5669 11.1862 17.7565 11.4145 18.9043C11.6428 20.052 12.2063 21.1062 13.0338 21.9337C13.8613 22.7612 14.9155 23.3247 16.0632 23.553C17.211 23.7813 18.4006 23.6641 19.4817 23.2163C20.5629 22.7684 21.4869 22.0101 22.1371 21.0371C22.7872 20.0641 23.1342 18.9202 23.1342 17.75C23.1342 16.1808 22.5108 14.6759 21.4012 13.5663C20.2916 12.4567 18.7867 11.8333 17.2175 11.8333ZM17.2175 20.7083C16.6324 20.7083 16.0605 20.5348 15.574 20.2097C15.0875 19.8847 14.7083 19.4226 14.4844 18.8821C14.2605 18.3415 14.2019 17.7467 14.316 17.1728C14.4302 16.599 14.7119 16.0719 15.1257 15.6581C15.5394 15.2444 16.0665 14.9626 16.6404 14.8485C17.2142 14.7343 17.8091 14.7929 18.3496 15.0168C18.8902 15.2407 19.3522 15.6199 19.6773 16.1064C20.0024 16.5929 20.1759 17.1649 20.1759 17.75C20.1759 18.5346 19.8642 19.287 19.3094 19.8418C18.7546 20.3966 18.0021 20.7083 17.2175 20.7083Z" stroke="#2E1619" stroke-width="2.95833" mask="url(#path-1-inside-1_2_10311)"/>
</svg>
