<svg width="35" height="35" viewBox="0 0 35 35" fill="none" xmlns="http://www.w3.org/2000/svg">
<path d="M17.5 2.91667C13.7614 2.92734 10.1697 4.37342 7.46667 6.95625V4.37501C7.46667 3.98823 7.31302 3.6173 7.03953 3.34381C6.76604 3.07032 6.39511 2.91667 6.00833 2.91667C5.62156 2.91667 5.25063 3.07032 4.97714 3.34381C4.70365 3.6173 4.55 3.98823 4.55 4.37501V10.9375C4.55 11.3243 4.70365 11.6952 4.97714 11.9687C5.25063 12.2422 5.62156 12.3958 6.00833 12.3958H12.5708C12.9576 12.3958 13.3285 12.2422 13.602 11.9687C13.8755 11.6952 14.0292 11.3243 14.0292 10.9375C14.0292 10.5507 13.8755 10.1798 13.602 9.90631C13.3285 9.63282 12.9576 9.47917 12.5708 9.47917H9.07083C10.9459 7.5197 13.4451 6.27471 16.1387 5.95827C18.8323 5.64184 21.552 6.27372 23.8301 7.74528C26.1083 9.21684 27.8026 11.4361 28.6217 14.0216C29.4409 16.607 29.3337 19.3971 28.3185 21.912C27.3034 24.427 25.4438 26.5097 23.0594 27.8021C20.675 29.0945 17.9149 29.5158 15.2535 28.9936C12.5922 28.4714 10.1959 27.0383 8.4767 24.9407C6.7575 22.8431 5.82281 20.2121 5.83333 17.5C5.83333 17.1132 5.67969 16.7423 5.4062 16.4688C5.13271 16.1953 4.76177 16.0417 4.375 16.0417C3.98823 16.0417 3.61729 16.1953 3.3438 16.4688C3.07031 16.7423 2.91667 17.1132 2.91667 17.5C2.91667 20.3843 3.77196 23.2039 5.3744 25.6021C6.97684 28.0003 9.25444 29.8695 11.9192 30.9732C14.584 32.077 17.5162 32.3658 20.3451 31.8031C23.174 31.2404 25.7725 29.8515 27.812 27.812C29.8515 25.7725 31.2404 23.174 31.8031 20.3451C32.3658 17.5162 32.077 14.584 30.9732 11.9192C29.8695 9.25445 28.0003 6.97684 25.6021 5.37441C23.2038 3.77197 20.3843 2.91667 17.5 2.91667ZM17.5 11.6667C17.1132 11.6667 16.7423 11.8203 16.4688 12.0938C16.1953 12.3673 16.0417 12.7382 16.0417 13.125V17.5C16.0417 17.8868 16.1953 18.2577 16.4688 18.5312C16.7423 18.8047 17.1132 18.9583 17.5 18.9583H20.4167C20.8034 18.9583 21.1744 18.8047 21.4479 18.5312C21.7214 18.2577 21.875 17.8868 21.875 17.5C21.875 17.1132 21.7214 16.7423 21.4479 16.4688C21.1744 16.1953 20.8034 16.0417 20.4167 16.0417H18.9583V13.125C18.9583 12.7382 18.8047 12.3673 18.5312 12.0938C18.2577 11.8203 17.8868 11.6667 17.5 11.6667Z" fill="#2E1619"/>
</svg>
