<svg width="41" height="40" viewBox="0 0 41 40" fill="none" xmlns="http://www.w3.org/2000/svg">
<path d="M0 5C0 2.23858 2.23858 0 5 0H36C38.7614 0 41 2.23858 41 5V35C41 37.7614 38.7614 40 36 40H5C2.23858 40 0 37.7614 0 35V5Z" fill="#FF2D2D" fill-opacity="0.6"/>
<path d="M20.5 18.75L19.75 21.25L20.5 22.25L21.25 21.25L20.5 18.75Z" fill="white"/>
<path fill-rule="evenodd" clip-rule="evenodd" d="M25.0005 16.8165C24.5427 16.5875 24.1065 16.3174 23.6975 16.0095C22.926 15.423 22 14.474 22 13.224C22 12.1105 22.842 11 24.094 11C24.675 11 25.145 11.232 25.5 11.5785C25.8545 11.232 26.325 11 26.9065 11C28.158 11 29 12.1115 29 13.224C29 14.4355 28.0695 15.3855 27.3055 15.9755C26.8952 16.2902 26.4586 16.5691 26.0005 16.809C26.0035 17.681 26.0175 18.5135 26.0305 19.3015C26.0605 21.029 26.0855 22.5435 25.981 23.794C25.822 25.688 25.3525 27.208 23.9485 28.0305C22.568 28.839 20.528 29.143 18.8385 28.9375C17.9905 28.8345 17.181 28.5975 16.5685 28.1885C16.123 27.891 15.7695 27.4905 15.6035 26.9885C14.565 26.941 13.532 26.7515 12.715 26.4125C11.8325 26.0465 11 25.4125 11 24.42V14.561H11.0015C11.0005 14.5407 11 14.5203 11 14.5C11 13.1195 13.2385 12 16 12C18.7615 12 21 13.1195 21 14.5C21 14.52 20.9995 14.541 20.9985 14.561H21V17.5355C21.833 17.656 22.5947 18.0725 23.1455 18.7088C23.6964 19.3451 23.9996 20.1586 23.9995 21.0002C23.9994 21.8419 23.6962 22.6553 23.1452 23.2915C22.5942 23.9277 21.8325 24.3442 20.9995 24.4645C20.9765 25.472 20.171 26.1095 19.2825 26.4715C18.5475 26.7705 17.6425 26.9355 16.7175 26.9845C16.8175 27.1185 16.9525 27.2425 17.1245 27.357C17.5595 27.648 18.1995 27.8525 18.9595 27.945C20.485 28.1305 22.293 27.841 23.4435 27.1675C24.399 26.6075 24.831 25.54 24.9845 23.7105C25.085 22.5095 25.0605 21.0795 25.032 19.3915C25.0153 18.5333 25.0048 17.6749 25.0005 16.8165ZM24.094 12C23.503 12 23 12.548 23 13.224C23 13.9715 23.574 14.66 24.3025 15.2125C24.676 15.4936 25.0751 15.739 25.4945 15.9455C25.9162 15.7278 26.3178 15.4732 26.6945 15.1845C27.4305 14.6155 28 13.9275 28 13.2245C28 12.5475 27.497 12 26.906 12C26.4945 12 26.1665 12.229 25.937 12.6425L25.5 13.431L25.063 12.6425C24.833 12.229 24.505 12 24.094 12ZM16 17C17.6355 17 19.0875 16.6075 20 16V17.535C19.1666 17.6548 18.4044 18.071 17.853 18.7073C17.3016 19.3435 16.9979 20.1572 16.9978 20.9991C16.9976 21.841 17.3008 22.6548 17.852 23.2913C18.4031 23.9278 19.1652 24.3443 19.9985 24.4645C19.9765 24.8535 19.662 25.237 18.9055 25.545C18.143 25.8555 17.0895 26.0115 16.0055 25.9995C15.8521 25.9977 15.6987 25.9925 15.5455 25.984V16.99C15.6955 16.9965 15.847 17 16 17ZM20 14.5C20 14.6075 19.887 14.974 19.0885 15.3735C18.3495 15.7425 17.259 16 16 16C14.741 16 13.65 15.7425 12.9115 15.3735C12.113 14.974 12 14.6075 12 14.5C12 14.3925 12.113 14.026 12.9115 13.6265C13.6505 13.2575 14.741 13 16 13C17.259 13 18.35 13.2575 19.0885 13.6265C19.887 14.026 20 14.3925 20 14.5ZM20.5 23.5C21.163 23.5 21.7989 23.2366 22.2678 22.7678C22.7366 22.2989 23 21.663 23 21C23 20.337 22.7366 19.7011 22.2678 19.2322C21.7989 18.7634 21.163 18.5 20.5 18.5C19.837 18.5 19.2011 18.7634 18.7322 19.2322C18.2634 19.7011 18 20.337 18 21C18 21.663 18.2634 22.2989 18.7322 22.7678C19.2011 23.2366 19.837 23.5 20.5 23.5Z" fill="white"/>
</svg>
