<svg width="36" height="36" viewBox="0 0 36 36" fill="none" xmlns="http://www.w3.org/2000/svg">
<path d="M12.25 0C11.6533 0 11.081 0.237053 10.659 0.65901C10.2371 1.08097 10 1.65326 10 2.25C10 6.53021 6.53021 10 2.25 10C1.65326 10 1.08097 10.2371 0.65901 10.659C0.237053 11.081 0 11.6533 0 12.25V23.75C0 24.3467 0.237053 24.919 0.65901 25.341C1.08097 25.7629 1.65326 26 2.25 26C6.53021 26 10 29.4698 10 33.75C10 34.3467 10.2371 34.919 10.659 35.341C11.081 35.7629 11.6533 36 12.25 36H23.75C24.3467 36 24.919 35.7629 25.341 35.341C25.7629 34.919 26 34.3467 26 33.75C26 29.4698 29.4698 26 33.75 26C34.3467 26 34.919 25.7629 35.341 25.341C35.7629 24.919 36 24.3467 36 23.75V12.25C36 11.6533 35.7629 11.081 35.341 10.659C34.919 10.2371 34.3467 10 33.75 10C29.4698 10 26 6.53021 26 2.25C26 1.65326 25.7629 1.08097 25.341 0.65901C24.919 0.237053 24.3467 0 23.75 0H12.25Z" fill="url(#paint0_linear_3_10372)"/>
<defs>
<linearGradient id="paint0_linear_3_10372" x1="7.01078" y1="12.1538" x2="51.3099" y2="13.3666" gradientUnits="userSpaceOnUse">
<stop stop-color="#FF7594"/>
<stop offset="0.536458" stop-color="#FF797B"/>
<stop offset="1" stop-color="#FF7C65"/>
</linearGradient>
</defs>
</svg>
