<svg width="230" height="230" viewBox="0 0 230 230" fill="none" xmlns="http://www.w3.org/2000/svg">
<path d="M206.917 41.5012H136.574V131.367H206.917V41.5012Z" fill="white"/>
<path d="M206.917 74.0646H136.574V75.1548H206.917V74.0646Z" fill="#FFC7BD"/>
<path d="M206.917 102.171H136.574V103.261H206.917V102.171Z" fill="#FFC7BD"/>
<path d="M206.917 130.277H136.574V131.367H206.917V130.277Z" fill="#FFC7BD"/>
<path d="M172.555 41.5012H170.936V130.277H172.555V41.5012Z" fill="#FCF4F3"/>
<path d="M174.119 102.166H182.454V88.2924H174.119V102.166Z" fill="#FCF4F3"/>
<path d="M172.978 88.2924H183.6V85.9326H172.978V88.2924Z" fill="#FFEBEB"/>
<path d="M175.191 99.9074H181.387V91.3514H175.191V99.9074Z" fill="#FFC7BD"/>
<path d="M185.352 102.166H193.688V88.2924H185.352V102.166Z" fill="#FCF4F3"/>
<path d="M184.212 88.2924H194.833V85.9326H184.212V88.2924Z" fill="#FFEBEB"/>
<path d="M186.424 99.9074H192.62V91.3514H186.424V99.9074Z" fill="#FFC7BD"/>
<path d="M196.586 102.166H204.921V88.2924H196.586V102.166Z" fill="#FCF4F3"/>
<path d="M195.445 88.2924H206.066V85.9326H195.445V88.2924Z" fill="#FFEBEB"/>
<path d="M197.657 99.9074H203.854V91.3514H197.657V99.9074Z" fill="#FFC7BD"/>
<path d="M149.072 130.277H138.032V117.737C138.032 117.089 138.29 116.468 138.748 116.01C139.206 115.552 139.827 115.294 140.475 115.294H146.639C147.287 115.294 147.908 115.552 148.366 116.01C148.824 116.468 149.081 117.089 149.081 117.737V130.277H149.072Z" fill="#FCF4F3"/>
<path d="M140.346 115.34H146.749V113.813H140.346V115.34Z" fill="#FCF4F3"/>
<path d="M138.718 113.813H148.382V112.18H138.718V113.813Z" fill="#FFEBEB"/>
<path d="M139.794 127.011H149.072V118.924H139.794V127.011Z" fill="#FFC7BD"/>
<path d="M161.423 130.277H150.383V117.737C150.383 117.089 150.641 116.468 151.099 116.01C151.557 115.552 152.178 115.294 152.826 115.294H158.99C159.638 115.294 160.259 115.552 160.717 116.01C161.175 116.468 161.432 117.089 161.432 117.737V130.277H161.423Z" fill="#FCF4F3"/>
<path d="M152.702 115.34H159.105V113.813H152.702V115.34Z" fill="#FCF4F3"/>
<path d="M151.069 113.813H160.733V112.18H151.069V113.813Z" fill="#FFEBEB"/>
<path d="M152.145 127.011H161.423V118.924H152.145V127.011Z" fill="#FFC7BD"/>
<path d="M173.641 74.1842H187.487V56.2764H173.641V74.1842Z" fill="#FCF4F3"/>
<path d="M173.641 56.2764H187.487L184.828 52.624H176.295L173.641 56.2764Z" fill="#FCF4F3"/>
<path d="M174.717 52.6194H186.41V49.0682H174.717V52.6194Z" fill="#FFC7BD"/>
<path d="M175.614 68.31H187.482V60.26H175.614V68.31Z" fill="#FFEBEB"/>
<path d="M188.522 74.1842H202.368V56.2764H188.522V74.1842Z" fill="#FCF4F3"/>
<path d="M188.522 56.2764H202.368L199.709 52.624H191.181L188.522 56.2764Z" fill="#FCF4F3"/>
<path d="M189.598 52.6194H201.291V49.0682H189.598V52.6194Z" fill="#FFC7BD"/>
<path d="M190.5 68.31H202.368V60.26H190.5V68.31Z" fill="#FFEBEB"/>
<path d="M166.115 74.06H141.303C140.617 74.06 139.96 73.7876 139.475 73.3028C138.99 72.818 138.718 72.1604 138.718 71.4748C138.718 70.7892 138.99 70.1316 139.475 69.6468C139.96 69.162 140.617 68.8896 141.303 68.8896H166.115C166.8 68.8908 167.456 69.1637 167.94 69.6484C168.424 70.1331 168.696 70.79 168.696 71.4748C168.696 72.1596 168.424 72.8165 167.94 73.3012C167.456 73.7859 166.8 74.0588 166.115 74.06Z" fill="#FFEBEB"/>
<path d="M166.115 68.54H141.303C140.618 68.54 139.961 68.2683 139.476 67.7844C138.992 67.3006 138.719 66.6442 138.718 65.9594C138.718 65.2738 138.99 64.6162 139.475 64.1314C139.96 63.6466 140.617 63.3742 141.303 63.3742H166.115C166.8 63.3754 167.456 63.6483 167.94 64.133C168.424 64.6177 168.696 65.2746 168.696 65.9594C168.696 66.6438 168.424 67.3002 167.94 67.7842C167.456 68.2681 166.8 68.54 166.115 68.54Z" fill="#FFEBEB"/>
<path d="M165.683 63.0568H141.731C141.243 63.0568 140.775 62.8629 140.43 62.5179C140.084 62.1728 139.891 61.7048 139.891 61.2168C139.891 60.7288 140.084 60.2608 140.43 59.9157C140.775 59.5707 141.243 59.3768 141.731 59.3768H165.683C166.171 59.3768 166.639 59.5707 166.984 59.9157C167.329 60.2608 167.523 60.7288 167.523 61.2168C167.523 61.7048 167.329 62.1728 166.984 62.5179C166.639 62.8629 166.171 63.0568 165.683 63.0568Z" fill="#FCF4F3"/>
<path d="M165.683 59.018H141.731C141.243 59.018 140.775 58.8241 140.43 58.4791C140.084 58.134 139.891 57.666 139.891 57.178C139.891 56.69 140.084 56.222 140.43 55.8769C140.775 55.5319 141.243 55.338 141.731 55.338H165.683C166.171 55.338 166.639 55.5319 166.984 55.8769C167.329 56.222 167.523 56.69 167.523 57.178C167.523 57.666 167.329 58.134 166.984 58.4791C166.639 58.8241 166.171 59.018 165.683 59.018Z" fill="#FCF4F3"/>
<path d="M206.917 151.239L171.801 151.368L136.574 151.441H136.372V151.239L136.344 135.723V135.493H136.574L171.746 135.557L206.917 135.645H207V135.723L206.917 151.239ZM206.917 151.239L206.839 135.723L206.917 135.806L171.746 135.893L136.574 135.953L136.804 135.723L136.776 151.239L136.574 151.041L171.695 151.115L206.917 151.239Z" fill="#FFC7BD"/>
<path d="M178.36 142.292H165.131V144.509H178.36V142.292Z" fill="#FFC7BD"/>
<path d="M206.917 170.43L171.801 170.559L136.574 170.632H136.372V170.43L136.344 154.914V154.684H136.574L171.746 154.749L206.917 154.836H207V154.914L206.917 170.43ZM206.917 170.43L206.839 154.914L206.917 154.997L171.746 155.084L136.574 155.144L136.804 154.914L136.776 170.43L136.574 170.232L171.695 170.306L206.917 170.43Z" fill="#FFC7BD"/>
<path d="M178.36 161.483H165.131V163.7H178.36V161.483Z" fill="#FFC7BD"/>
<path d="M206.917 189.621L171.801 189.75L136.574 189.824H136.372V189.621L136.344 174.105V173.88H136.574L171.746 173.944L206.917 174.027H207V174.105L206.917 189.621ZM206.917 189.621L206.839 174.105L206.917 174.188L171.746 174.271L136.574 174.34L136.804 174.11L136.776 189.626L136.574 189.428L171.695 189.502L206.917 189.621Z" fill="#FFC7BD"/>
<path d="M178.36 180.674H165.131V182.891H178.36V180.674Z" fill="#FFC7BD"/>
<path d="M65.826 33.1982H28.1474V78.9038H65.826V33.1982Z" fill="#FFE8ED"/>
<path d="M61.5204 37.3658H32.453V74.727H61.5204V37.3658Z" fill="white"/>
<path d="M33.5892 37.3658H32.453V74.727H33.5892V37.3658Z" fill="#FFEBEB"/>
<path d="M66.9622 33.1982H65.826V78.9038H66.9622V33.1982Z" fill="#FFEBEB"/>
<path d="M49.0452 42.5178H42.1912V62.9372H49.0452V42.5178Z" fill="#FFEBEB"/>
<path d="M57.7116 66.6586H38.9712V56.1936H57.7116V66.6586ZM39.4312 66.1986H57.2516V56.6536H39.4312V66.1986Z" fill="#FCF4F3"/>
<path d="M114.292 66.7874H76.613V112.493H114.292V66.7874Z" fill="#FCF4F3"/>
<path d="M109.986 70.9596H80.9186V108.321H109.986V70.9596Z" fill="white"/>
<path d="M82.0548 70.9596H80.9186V108.321H82.0548V70.9596Z" fill="#FFEBEB"/>
<path d="M115.432 66.7874H114.296V112.493H115.432V66.7874Z" fill="#FFEBEB"/>
<path d="M98.5136 80.615H92.6394V95.4638H98.5136V80.615Z" fill="#FCF4F3"/>
<path d="M104.926 100.105H88.688V89.4102H104.926V100.105ZM89.148 99.6452H104.466V89.8702H89.148V99.6452Z" fill="#FFEBEB"/>
<path d="M115 204.304C155.844 204.304 188.954 202.144 188.954 199.479C188.954 196.814 155.844 194.654 115 194.654C74.1562 194.654 41.0458 196.814 41.0458 199.479C41.0458 202.144 74.1562 204.304 115 204.304Z" fill="#FAF0EF" fill-opacity="0.2"/>
<path d="M198.472 162.444C198.472 162.444 206.324 160.664 210.629 156.699C214.935 152.734 217.336 145.627 217.336 145.627C214.351 146.194 211.408 146.963 208.527 147.927C207.451 149.038 206.552 150.309 205.864 151.694C205.796 150.798 205.796 149.899 205.864 149.003C204.857 149.436 203.916 150.008 203.067 150.701C199.479 153.838 198.472 162.444 198.472 162.444Z" fill="#FF7C65"/>
<path d="M212.433 149.081C213.504 148.341 214.595 147.628 215.653 146.878C215.663 146.868 215.67 146.854 215.672 146.839C215.673 146.824 215.67 146.809 215.661 146.797C215.653 146.784 215.641 146.775 215.627 146.771C215.613 146.766 215.597 146.767 215.584 146.772C213.564 147.982 211.568 149.275 209.636 150.627C208.964 151.102 208.302 151.59 207.649 152.09L207.787 151.86C208.021 151.464 208.247 151.078 208.518 150.691C209.011 149.903 209.569 149.159 210.188 148.465C210.211 148.437 210.188 148.401 210.146 148.428C209.539 149.132 208.927 149.831 208.366 150.576C208.102 150.935 207.854 151.303 207.621 151.68C207.501 151.874 207.382 152.071 207.267 152.274L207.152 152.476C206.135 153.272 205.146 154.105 204.203 154.983C203.621 155.526 203.058 156.087 202.515 156.667C202.819 155.719 203.085 154.758 203.435 153.819C203.435 153.787 203.398 153.773 203.384 153.819C203.044 154.799 202.667 155.784 202.405 156.796C201.802 157.444 201.227 158.116 200.684 158.82L200.712 158.691C200.804 158.318 200.896 157.95 200.992 157.582C201.186 156.874 201.393 156.165 201.632 155.471C202.084 154.024 202.8 152.674 203.743 151.487C203.766 151.46 203.743 151.423 203.706 151.45C202.235 153.284 201.205 155.433 200.698 157.729C200.615 158.065 200.532 158.401 200.459 158.737C200.417 158.916 200.371 159.096 200.339 159.28C200.105 159.602 199.879 159.924 199.645 160.255C198.307 162.302 197.194 164.487 196.323 166.773C195.343 169.341 194.503 171.961 193.807 174.621C193.807 174.671 193.872 174.69 193.885 174.621C195.422 170.021 196.99 165.365 199.622 161.258C200.178 160.388 200.776 159.556 201.416 158.746C202.716 158.664 204 158.409 205.234 157.987C206.582 157.537 207.868 156.919 209.061 156.147C209.739 155.688 210.393 155.193 211.02 154.666C211.025 154.664 211.028 154.662 211.031 154.659C211.034 154.656 211.036 154.652 211.038 154.648C211.039 154.643 211.039 154.639 211.038 154.635C211.037 154.63 211.036 154.626 211.033 154.623C211.03 154.619 211.027 154.617 211.023 154.615C211.019 154.613 211.015 154.612 211.01 154.612C211.006 154.612 211.002 154.614 210.998 154.616C210.994 154.618 210.991 154.621 210.988 154.624C209.893 155.508 208.683 156.24 207.391 156.8C206.121 157.384 204.791 157.83 203.426 158.13C202.846 158.258 202.262 158.35 201.673 158.429C202.395 157.535 203.162 156.68 203.973 155.866C204.24 155.6 204.511 155.347 204.787 155.094C205.702 154.45 206.673 153.893 207.69 153.428C208.973 152.807 210.243 152.15 211.517 151.501C212.235 151.133 212.948 150.76 213.675 150.406C213.702 150.406 213.675 150.346 213.642 150.36C212.354 150.986 211.043 151.565 209.742 152.163C208.513 152.725 207.271 153.29 206.098 153.953L205.947 154.04C207.014 153.12 208.113 152.232 209.24 151.381C210.303 150.595 211.361 149.822 212.433 149.081Z" fill="#263238"/>
<path d="M211.986 153.129C211.347 153.41 210.698 153.658 210.064 153.953C209.429 154.247 208.799 154.615 208.182 154.979C208.177 154.982 208.173 154.987 208.171 154.993C208.169 154.999 208.17 155.005 208.173 155.011C208.176 155.016 208.181 155.02 208.187 155.022C208.193 155.024 208.2 155.023 208.205 155.02C208.835 154.721 209.466 154.44 210.087 154.128C210.708 153.815 211.352 153.465 212 153.18C212.032 153.18 212.019 153.116 211.986 153.129Z" fill="#263238"/>
<path d="M172.96 122.866C174.413 124.737 175.236 127.021 175.311 129.389C175.311 130.093 175.223 131.077 175.14 132.232C177.1 133.37 178.835 134.858 180.26 136.62C178.693 135.711 176.894 135.28 175.085 135.378C175.124 136.168 175.224 136.954 175.384 137.729C176.526 137.73 177.658 137.953 178.715 138.386C177.683 138.374 176.659 138.577 175.711 138.984C177.091 143.437 181.272 148.01 192.763 149.955C193.982 144.493 193.263 138.777 190.73 133.786C187.284 127.001 172.96 122.866 172.96 122.866Z" fill="#FF7C65"/>
<path d="M196.742 169.004C196.54 167.1 196.291 165.203 195.997 163.314C195.419 159.527 194.652 155.772 193.697 152.062C193.246 150.322 192.692 148.611 192.036 146.938C192.07 146.632 192.085 146.325 192.082 146.018C192.082 145.65 192.082 145.282 192.082 144.914C192.082 144.178 192.041 143.446 191.976 142.71C191.859 141.257 191.624 139.815 191.273 138.4C191.061 137.586 190.813 136.776 190.578 135.967C190.578 135.959 190.575 135.952 190.57 135.947C190.565 135.942 190.558 135.939 190.55 135.939C190.543 135.939 190.536 135.942 190.531 135.947C190.526 135.952 190.523 135.959 190.523 135.967C190.904 137.389 191.184 138.838 191.36 140.3C191.565 141.73 191.694 143.171 191.746 144.615C191.746 145.01 191.769 145.406 191.769 145.802C191.769 145.967 191.769 146.137 191.769 146.308C191.204 144.935 190.557 143.597 189.833 142.301C188.666 140.246 187.351 138.278 185.9 136.413C185.898 136.196 185.865 135.981 185.803 135.774C185.753 135.516 185.693 135.258 185.638 135.005C185.518 134.476 185.389 133.957 185.247 133.437C184.961 132.397 184.584 131.39 184.258 130.364C184.259 130.36 184.26 130.355 184.26 130.351C184.259 130.346 184.258 130.342 184.255 130.338C184.253 130.334 184.249 130.331 184.245 130.329C184.241 130.327 184.237 130.325 184.232 130.325C184.228 130.325 184.223 130.327 184.219 130.329C184.215 130.331 184.212 130.334 184.209 130.338C184.207 130.342 184.205 130.346 184.205 130.351C184.204 130.355 184.205 130.36 184.207 130.364C184.511 131.381 184.713 132.434 184.943 133.474C185.058 133.984 185.173 134.499 185.283 135.01L185.449 135.778C185.449 135.778 185.449 135.82 185.449 135.838C184.986 135.252 184.512 134.674 184.028 134.104C181.833 131.532 179.428 129.159 177.003 126.804C176.709 126.514 176.401 126.229 176.083 125.943C176.056 125.943 176.019 125.943 176.047 125.98C178.347 128.395 180.647 130.838 182.795 133.395C183.31 134.003 183.811 134.614 184.308 135.235C184.046 135.056 183.784 134.886 183.526 134.716C182.855 134.279 182.178 133.851 181.484 133.46C180.789 133.069 180.081 132.687 179.368 132.333C178.655 131.979 177.841 131.67 177.132 131.256C177.1 131.256 177.072 131.293 177.105 131.302C177.835 131.644 178.541 132.038 179.216 132.48C179.915 132.894 180.596 133.313 181.3 133.75C182.004 134.187 182.652 134.601 183.324 135.033C183.885 135.396 184.432 135.797 185.012 136.128C186.343 137.84 187.571 139.63 188.692 141.487C189.388 142.657 190.022 143.862 190.592 145.098L190.182 144.918L189.129 144.458L187.096 143.571C185.808 143.014 184.497 142.499 183.236 141.882C182.523 141.547 181.833 141.164 181.171 140.737C181.143 140.737 181.116 140.765 181.148 140.783C183.503 142.407 186.144 143.543 188.752 144.707L189.883 145.208C190.192 145.342 190.504 145.498 190.803 145.618C191.579 147.344 192.229 149.125 192.749 150.944C193.777 154.602 194.61 158.312 195.247 162.058C195.909 165.812 196.351 169.588 196.696 173.383C196.742 173.843 196.783 174.331 196.839 174.805C196.845 174.84 196.863 174.872 196.891 174.895C196.918 174.917 196.952 174.93 196.988 174.93C197.024 174.93 197.058 174.917 197.086 174.895C197.113 174.872 197.131 174.84 197.138 174.805C197.138 172.845 196.94 170.918 196.742 169.004Z" fill="#263238"/>
<path d="M189.75 137.269C189.538 136.1 189.226 134.969 188.913 133.814C188.913 133.782 188.853 133.814 188.862 133.814C189.152 134.936 189.359 136.082 189.571 137.218C189.782 138.354 189.975 139.546 190.141 140.719H190.173C190.096 139.562 189.954 138.41 189.75 137.269Z" fill="#263238"/>
<path d="M184.796 140.438C183.997 139.911 183.162 139.441 182.298 139.03C181.879 138.814 181.456 138.612 181.033 138.405C180.61 138.198 180.141 138.014 179.704 137.798C179.676 137.798 179.648 137.83 179.681 137.844C180.099 138.055 180.499 138.304 180.909 138.534L182.188 139.233C183.014 139.714 183.865 140.153 184.736 140.548C184.75 140.552 184.765 140.551 184.778 140.546C184.792 140.54 184.803 140.53 184.81 140.517C184.817 140.504 184.819 140.489 184.817 140.475C184.814 140.461 184.807 140.448 184.796 140.438Z" fill="#263238"/>
<path opacity="0.1" d="M198.614 148.842C198.614 148.842 205.878 147.108 209.217 142.232C212.405 137.577 213.431 129.637 213.514 128.943C213.385 129.582 211.885 136.519 206.936 139.748C203.15 142.223 199.488 144.261 198.614 148.842Z" fill="#263238"/>
<path d="M205.321 136.284C204.028 137.473 203.098 139.004 202.639 140.7C202.639 140.7 202.639 140.723 202.662 140.7C203.197 139.047 204.119 137.545 205.353 136.321C205.381 136.303 205.344 136.261 205.321 136.284Z" fill="#263238"/>
<path d="M198.614 148.842C198.614 148.842 205.878 147.108 209.217 142.232C212.405 137.577 213.431 129.637 213.514 128.943C213.515 128.926 213.515 128.909 213.514 128.892C213.514 128.892 210.031 133.846 206.365 135.111C202.699 136.376 197.561 140.76 198.614 148.842Z" fill="#FF7C65"/>
<path d="M212.235 131.624C211.584 132.959 210.833 134.243 209.99 135.465C209.142 136.626 208.135 137.661 207 138.543C206.011 139.325 204.967 140.038 203.969 140.806C203.968 140.794 203.968 140.781 203.969 140.769C204.157 140.489 204.355 140.222 204.562 139.955C204.981 139.426 205.436 138.92 205.891 138.428C206.811 137.448 207.731 136.487 208.527 135.424C208.976 134.838 209.365 134.209 209.691 133.547C209.691 133.515 209.654 133.501 209.64 133.547C208.463 136.004 206.108 137.577 204.429 139.651C204.189 139.946 203.965 140.253 203.757 140.571C203.591 140.802 203.45 141.051 203.338 141.312C202.418 142.049 201.586 142.89 200.859 143.819C200.922 143.342 201.021 142.87 201.153 142.407C201.321 141.76 201.58 141.141 201.922 140.567C201.922 140.539 201.894 140.507 201.876 140.539C201.522 141.117 201.237 141.735 201.029 142.379C200.876 142.889 200.788 143.416 200.767 143.948C200.408 144.436 200.079 144.946 199.783 145.475C199.815 145.319 199.842 145.167 199.875 145.015C200.017 144.293 200.178 143.571 200.367 142.853C200.71 141.398 201.301 140.013 202.115 138.759C202.115 138.731 202.087 138.704 202.069 138.731C201.235 139.967 200.583 141.317 200.132 142.738C199.902 143.451 199.714 144.173 199.553 144.905C199.476 145.263 199.402 145.622 199.332 145.981C199.295 146.17 199.258 146.358 199.226 146.551C198.505 148.134 197.944 149.784 197.552 151.478C196.837 154.508 196.319 157.581 196.001 160.678C195.627 163.899 195.46 167.141 195.5 170.384C195.5 170.793 195.528 171.203 195.551 171.612C195.551 171.718 195.716 171.732 195.721 171.612C195.79 169.998 195.836 168.392 195.928 166.773C196.02 165.154 196.167 163.553 196.337 161.943C196.669 158.787 197.174 155.651 197.851 152.55C198.439 149.891 199.231 147.218 200.657 144.891C201.379 143.732 202.262 142.682 203.279 141.772C204.3 140.852 205.413 140.056 206.499 139.21C207.587 138.385 208.575 137.436 209.443 136.381C210.325 135.206 211.095 133.951 211.743 132.632C211.913 132.301 212.088 131.974 212.262 131.643C212.295 131.624 212.249 131.592 212.235 131.624Z" fill="#263238"/>
<path d="M210.979 132.692C210.503 133.67 209.962 134.615 209.36 135.521C209.36 135.544 209.36 135.562 209.397 135.544C210.019 134.644 210.565 133.695 211.03 132.705C211.048 132.678 210.997 132.659 210.979 132.692Z" fill="#263238"/>
<path d="M171.943 145.627C171.943 145.627 171.828 155.94 178.02 158.935C184.212 161.929 187.505 159.436 191.7 160.434C191.539 160.186 188.545 155.88 183.779 154.698C178.857 153.47 173.42 149.932 171.943 145.627Z" fill="#FF7C65"/>
<path opacity="0.1" d="M171.943 145.627C171.943 145.627 171.828 155.94 178.02 158.935C184.212 161.929 187.505 159.436 191.7 160.434C189.484 159.377 187.115 158.677 184.681 158.36C180.78 157.89 173.323 155.351 171.943 145.627Z" fill="black"/>
<path d="M192.091 160.618C191.358 159.947 190.53 159.386 189.635 158.953C189.506 158.889 189.368 158.838 189.235 158.783L189.028 158.544C188.839 158.35 188.646 158.166 188.444 157.992C188.056 157.657 187.641 157.357 187.202 157.095C186.18 156.497 185.058 156.073 184.014 155.517C184.011 155.514 184.007 155.512 184.003 155.51C183.999 155.509 183.995 155.509 183.991 155.509C183.987 155.51 183.983 155.511 183.979 155.513C183.976 155.516 183.973 155.519 183.971 155.522C183.969 155.526 183.967 155.53 183.967 155.534C183.967 155.538 183.967 155.542 183.969 155.546C183.97 155.55 183.972 155.554 183.976 155.557C183.979 155.559 183.982 155.562 183.986 155.563C184.501 155.83 185.003 156.129 185.509 156.418C186.015 156.708 186.498 156.98 186.972 157.288C187.402 157.564 187.811 157.871 188.195 158.208C188.306 158.3 188.407 158.406 188.513 158.511C187.83 158.28 187.132 158.094 186.424 157.955C185.293 157.725 184.152 157.564 183.025 157.325C182.471 157.2 181.925 157.047 181.387 156.865C180.872 156.451 180.361 156.041 179.874 155.595C179.287 155.056 178.753 154.463 178.278 153.824C178.278 153.796 178.213 153.824 178.236 153.852C178.983 154.865 179.831 155.801 180.766 156.644C180.499 156.543 180.237 156.437 179.975 156.317C177.855 155.366 176.035 153.853 174.713 151.943C174.713 151.91 174.648 151.943 174.667 151.97C175.791 153.61 177.241 155 178.926 156.055C179.771 156.582 180.674 157.01 181.617 157.329C182.711 157.669 183.827 157.933 184.957 158.12C186.066 158.299 187.161 158.559 188.232 158.898C189.223 159.23 190.154 159.717 190.992 160.342C192.559 161.569 193.819 163.144 194.672 164.942C195.777 167.327 196.468 169.883 196.714 172.5C196.714 172.61 196.898 172.61 196.889 172.5C196.599 168.148 195.44 163.631 192.091 160.618Z" fill="#263238"/>
<path d="M184.92 157.251C184.597 156.768 184.161 156.372 183.65 156.096C183.066 155.791 182.552 155.366 182.142 154.85C182.142 154.822 182.077 154.85 182.096 154.877C182.467 155.351 182.919 155.755 183.43 156.073C183.991 156.37 184.486 156.779 184.883 157.274C184.92 157.32 184.943 157.274 184.92 157.251Z" fill="#263238"/>
<path d="M188.204 168.24L188.485 173.917L189.345 191.268H202.299L203.159 173.917L203.44 168.24H188.204Z" fill="#455A64"/>
<path d="M188.204 168.24L188.485 173.917H203.159L203.44 168.24H188.204Z" fill="#263238"/>
<path d="M187.294 171.29H204.35V165.871H187.294V171.29Z" fill="#455A64"/>
<path d="M19.8628 191.277H81.3924L69.1242 119.917H23.115L19.8628 191.277Z" fill="#FCF4F3"/>
<path d="M19.8628 191.277H25.2586L28.2854 119.917H23.115L19.8628 191.277Z" fill="#FFC7BD"/>
<path d="M62.2748 78.5726C61.0972 78.7382 55.9406 78.1908 52.5504 82.9012C49.3304 87.3632 48.3322 100.841 47.6652 103.785C46.9982 106.729 43.1526 107.203 42.2786 110.621C41.5242 113.56 43.6586 114.618 43.9116 116.766C44.0956 118.432 42.4396 120.948 43.9852 123.404C45.3928 125.635 47.8216 125.134 49.2982 125.824C50.7748 126.514 51.7224 129.909 54.4548 130.801C57.1872 131.693 59.5654 129.186 61.0098 129.186C62.4542 129.186 64.2298 133.602 68.9126 133.17C73.5954 132.738 74.9432 128.736 76.8844 127.935C78.8256 127.135 83.7154 128.437 85.9234 125.989C88.1314 123.542 88.481 120.285 89.4746 119.089C90.4682 117.893 92.5658 118.059 93.7894 115.281C95.013 112.502 92.4094 110.773 92.0414 108.381C91.77 106.711 93.242 105.161 92.1748 102.621C90.7074 99.1254 86.4202 99.9166 84.7458 96.3286C83.4348 93.5134 80.661 81.2544 73.209 78.2966C68.08 76.2496 62.2748 78.5726 62.2748 78.5726Z" fill="#263238"/>
<path d="M47.7986 103.077C47.5205 103.701 47.0941 104.247 46.5566 104.668L45.034 106.007C43.9953 106.826 43.0906 107.803 42.3522 108.9C42.011 109.425 41.7953 110.021 41.7219 110.643C41.6485 111.264 41.7194 111.894 41.929 112.484C42.1779 113.073 42.5162 113.621 42.9318 114.108C43.412 114.637 43.8104 115.236 44.114 115.883C44.2994 116.621 44.2397 117.399 43.9438 118.1C43.7276 118.758 43.4838 119.384 43.3136 120.014C42.9456 121.261 42.8536 122.59 43.4746 123.694C43.754 124.246 44.2108 124.688 44.7718 124.95C45.3705 125.196 46.0104 125.327 46.6578 125.336C47.3202 125.378 47.9918 125.336 48.6726 125.336C49.3569 125.278 50.0428 125.427 50.6414 125.764C50.022 125.507 49.3428 125.431 48.6818 125.543C48.0102 125.594 47.3386 125.681 46.6532 125.7C45.9488 125.729 45.2454 125.62 44.5832 125.378C43.8966 125.104 43.3227 124.606 42.9548 123.965C42.1498 122.71 42.274 121.104 42.6374 119.802C42.8122 119.131 43.0468 118.487 43.2354 117.857C43.4689 117.308 43.5221 116.699 43.3872 116.118C42.9732 115.046 41.7496 114.094 41.2758 112.7C41.0319 112.015 40.9567 111.28 41.0568 110.56C41.1569 109.839 41.4293 109.153 41.8508 108.56C42.6739 107.453 43.6694 106.485 44.7994 105.694L46.4278 104.489C46.9826 104.124 47.4505 103.642 47.7986 103.077Z" fill="#263238"/>
<path d="M80.1412 85.1552C81.4476 87.2068 82.2664 89.5068 83.2968 91.678C83.8166 92.7636 84.295 93.8676 84.8838 94.898C85.1582 95.4043 85.4868 95.8793 85.8636 96.3148C85.9417 96.4174 86.0365 96.5061 86.1442 96.577C86.2432 96.6605 86.3531 96.7301 86.4708 96.784C86.7238 96.9174 86.9952 97.0324 87.2666 97.1474C88.4023 97.5919 89.5139 98.0955 90.597 98.6562C91.7408 99.2358 92.6775 100.155 93.2788 101.287C93.5686 101.872 93.7032 102.522 93.6698 103.173C93.6102 103.803 93.429 104.416 93.1362 104.977C92.5842 106.058 92.0644 107.139 92.0414 108.371C91.8804 107.148 92.3588 105.933 92.7912 104.829C93.0256 104.301 93.1583 103.733 93.1822 103.155C93.1766 102.595 93.0277 102.045 92.7498 101.559C92.1582 100.568 91.2923 99.7688 90.2566 99.2588C89.1836 98.7308 88.0843 98.2579 86.963 97.842C86.6824 97.7178 86.4018 97.589 86.1212 97.4418C85.8157 97.2803 85.5439 97.0617 85.3208 96.7978C84.9136 96.3125 84.5618 95.7833 84.272 95.22C83.6969 94.1443 83.1899 93.0335 82.754 91.8942L81.4706 88.4994C81.0951 87.359 80.6512 86.2422 80.1412 85.1552Z" fill="#263238"/>
<path d="M90.62 118.252C90.1094 118.951 90.0496 119.853 89.8656 120.686C89.6816 121.518 89.516 122.383 89.2998 123.229C89.0924 124.092 88.7964 124.93 88.4166 125.732C88.031 126.576 87.4452 127.313 86.71 127.88C85.0724 128.947 83.1174 128.841 81.4246 128.552C80.5644 128.4 79.7226 128.202 78.8762 128.092C78.0405 127.901 77.1714 127.914 76.3416 128.128C77.1481 127.764 78.0374 127.621 78.9176 127.714C79.7916 127.774 80.6518 127.903 81.5028 127.981C83.1772 128.142 84.962 128.151 86.2684 127.264C86.9054 126.776 87.419 126.146 87.768 125.424C88.1524 124.672 88.4755 123.89 88.734 123.087C89.0146 122.277 89.2492 121.445 89.4976 120.617C89.6356 120.203 89.7736 119.789 89.93 119.379C90.0538 118.948 90.2923 118.559 90.62 118.252Z" fill="#263238"/>
<path d="M78.2368 131.408C88.1636 136.298 122.521 150.052 132.121 144.596C138.419 141.018 157.881 119.876 157.035 111.545C156.667 107.921 140.245 95.0222 137.949 98.1732C135.654 101.324 120.589 118.873 117.949 120.152C115.308 121.431 83.3658 117.392 73.462 118.165C56.3914 119.48 72.8916 128.8 78.2368 131.408Z" fill="#D3766A"/>
<path d="M130.516 102.847L151.575 125.456C151.575 125.456 137.448 143.658 127.728 147.333C115.92 151.8 78.8808 134.582 73.14 131.445C63.7514 126.298 60.72 120.966 65.941 118.542C67.9558 117.585 71.2264 117.079 75.8632 117.208C80.707 117.328 110.05 119.871 117.631 118.657C121.9 117.976 130.516 102.847 130.516 102.847Z" fill="#FCF4F3"/>
<path d="M146.427 128.312C143.207 125.065 130.553 111.292 128.027 108.132C127.852 107.916 127.949 107.75 128.161 107.953C138.023 117.456 143.571 124.835 146.561 128.193C146.625 128.262 146.505 128.395 146.427 128.312Z" fill="#263238"/>
<path d="M92.9614 191.268C92.9614 191.268 32.545 191.268 32.292 191.268C32.292 191.268 32.476 189.851 32.8302 188.011C32.8302 187.947 32.8302 187.887 32.867 187.823C32.9038 187.758 32.867 187.8 32.867 187.786C32.9176 187.519 32.9728 187.238 33.028 186.939C33.2304 185.914 33.488 184.718 33.741 183.37C34.7024 178.65 36.11 172.123 37.881 165.011C38.065 164.261 38.2582 163.507 38.4514 162.748C38.847 161.198 39.261 159.625 39.6888 158.042C39.7578 157.798 39.8222 157.555 39.8912 157.311C39.8912 157.237 39.9326 157.164 39.951 157.09C40.02 156.846 40.0844 156.602 40.1534 156.354C43.1112 145.691 46.759 134.821 50.8392 127.443C51.9815 125.295 53.3709 123.288 54.9792 121.463C55.6601 120.717 56.3967 120.023 57.1826 119.388C57.3988 119.218 57.6104 119.053 57.822 118.896C58.0336 118.74 58.282 118.583 58.4798 118.436C59.0668 118.044 59.6818 117.695 60.3198 117.392C60.7781 117.172 61.2497 116.982 61.732 116.822C62.077 116.702 62.422 116.605 62.7624 116.523C65.3541 115.876 68.0921 116.188 70.472 117.401C70.9967 117.673 71.5023 117.981 71.9854 118.321C72.1004 118.404 72.2154 118.487 72.3258 118.574C72.8536 118.973 73.3517 119.41 73.8162 119.881L73.9542 120.028C74.2164 120.327 74.6856 120.911 75.302 121.711C76.1024 122.746 77.142 124.154 78.3426 125.787C78.7658 126.367 79.2013 126.972 79.649 127.604L79.7686 127.774C79.8974 127.949 80.0216 128.128 80.1458 128.308C80.8726 129.334 81.6178 130.415 82.363 131.528C82.9288 132.36 83.4946 133.211 84.0512 134.067C84.8102 135.226 85.5508 136.395 86.2546 137.549C87.8525 140.082 89.2476 142.736 90.4268 145.489C90.6761 146.105 90.8851 146.736 91.0524 147.379C91.0701 147.44 91.0839 147.501 91.0938 147.563C91.0938 147.619 91.1214 147.678 91.1352 147.734C91.3138 148.621 91.4017 149.524 91.3974 150.429C91.3907 151.633 91.2628 152.834 91.0156 154.013L90.9742 154.22C90.4959 156.41 89.7497 158.532 88.7524 160.54C88.7509 160.551 88.7509 160.562 88.7524 160.572L88.5914 160.89C88.4212 161.207 88.32 161.382 88.32 161.382V161.442L88.412 162.063L89.5528 169.883L91.2226 181.383L92.9614 191.268Z" fill="#FF7C65"/>
<path d="M30.245 191.268C30.4474 190.164 30.6498 189.06 30.8568 187.97C30.8568 187.942 30.8568 187.91 30.8568 187.882V187.804C30.9074 187.533 30.958 187.261 31.0132 186.99C32.292 180.43 33.58 174.142 34.96 168.383C35.121 167.679 35.2866 166.98 35.4522 166.295C36.064 163.76 36.6804 161.34 37.2922 159.059C37.3198 158.967 37.3428 158.875 37.3704 158.783C37.421 158.594 37.4716 158.406 37.5268 158.222C37.605 157.927 37.6878 157.637 37.7706 157.352C38.571 154.542 39.3806 151.966 40.1948 149.675C43.9898 139.017 47.5548 131.868 50.5816 127.08C52.9184 123.4 54.9516 121.1 56.5616 119.669C57.0135 119.259 57.4897 118.876 57.9876 118.524L58.1026 118.445C59.5332 117.461 60.3428 117.355 60.3428 117.355V117.392C60.3428 117.456 60.3428 117.599 60.3428 117.82C60.3428 118.28 63.3742 132.94 63.4156 134.729C63.5076 138.704 66.8656 188.365 66.907 191.273C66.907 191.277 30.245 191.268 30.245 191.268Z" fill="#FCF4F3"/>
<path d="M93.38 191.268H81.351C81.351 191.236 81.351 191.199 81.351 191.167C80.96 187.16 80.5782 183.19 80.2102 179.294C80.1826 179.046 80.1596 178.802 80.1366 178.554C79.8974 176.051 79.6766 173.576 79.4328 171.152C79.4328 171.065 79.4328 170.977 79.4328 170.89C79.12 167.601 78.8164 164.395 78.5128 161.294C78.5128 161.199 78.5036 161.103 78.4852 161.005C78.1724 157.683 77.8734 154.491 77.5928 151.455C77.5928 151.391 77.5928 151.331 77.5928 151.266V151.101C77.3214 148.212 77.0132 145.457 76.6728 142.858C76.1852 139.017 75.6608 135.521 75.1456 132.452C74.9984 131.569 74.8527 130.723 74.7086 129.913C74.681 129.761 74.6534 129.614 74.6304 129.453C73.646 123.984 72.7904 120.295 72.4822 119.025C72.4316 118.809 72.3948 118.666 72.3764 118.593C72.3755 118.577 72.3755 118.562 72.3764 118.547C72.9368 118.907 73.4393 119.351 73.8668 119.862L74.0048 120.009C74.382 120.419 74.796 120.897 75.2514 121.44C76.1714 122.516 77.1834 123.837 78.2828 125.318C78.8225 126.042 79.373 126.796 79.9342 127.581L80.0814 127.783L80.477 128.345C81.6362 129.987 82.8184 131.735 83.9592 133.492L84.3824 134.159C85.123 135.314 85.836 136.459 86.5076 137.604C88.0516 140.116 89.3899 142.748 90.5096 145.475C90.7501 146.086 90.9484 146.713 91.103 147.352C91.1207 147.412 91.1345 147.474 91.1444 147.536C91.1444 147.637 91.1858 147.734 91.2042 147.83C91.3512 148.68 91.4327 149.539 91.448 150.402C91.4722 151.607 91.3766 152.812 91.1628 153.999C91.1628 154.091 91.1306 154.183 91.1168 154.27C90.6867 156.478 89.8874 158.598 88.7524 160.54C88.7509 160.551 88.7509 160.562 88.7524 160.572L88.5822 160.839V160.89L88.6788 161.501L88.7662 162.063L89.9438 169.492L92.851 187.786L93.38 191.268Z" fill="#FCF4F3"/>
<path d="M93.2006 191.268H92.9614C92.7176 189.929 92.4462 188.6 92.207 187.261C91.8574 185.306 91.5308 183.351 91.2134 181.387C91.1858 181.231 91.1628 181.07 91.1352 180.927C90.5464 177.279 90.0174 173.622 89.4884 169.965L89.2124 168.056C88.9272 166.065 88.619 164.068 88.3614 162.076C88.3338 161.869 88.3062 161.658 88.2832 161.451L88.2004 160.765C88.1728 160.499 89.2676 158.764 89.5804 158.102C90.0127 157.203 90.3667 156.269 90.6384 155.31C90.7442 154.937 90.8408 154.56 90.9144 154.178C90.9278 154.127 90.9385 154.074 90.9466 154.022C91.2573 152.47 91.3256 150.879 91.149 149.307C90.9924 147.988 90.6837 146.691 90.229 145.443C89.309 142.839 87.8554 140.41 86.3972 138.083L85.997 137.448C85.2656 136.284 84.525 135.125 83.789 133.966C83.3014 133.193 82.8184 132.42 82.34 131.638C82.3355 131.63 82.3331 131.62 82.3328 131.61C82.3326 131.601 82.3345 131.591 82.3385 131.582C82.3425 131.573 82.3484 131.566 82.3558 131.559C82.3633 131.553 82.372 131.549 82.3814 131.546C82.3897 131.539 82.4003 131.535 82.4113 131.535C82.4223 131.535 82.4329 131.539 82.4412 131.546C82.938 132.199 83.4333 132.857 83.927 133.52L84.4514 134.228C85.1077 135.127 85.7624 136.025 86.4156 136.924C86.0798 136.169 85.7486 135.41 85.4358 134.624C85.3438 134.412 85.261 134.196 85.1736 133.98C85.1276 133.869 85.2886 133.773 85.3392 133.888C85.4772 134.173 85.6106 134.463 85.7394 134.752C86.1994 135.741 86.6042 136.744 87.0182 137.747L87.1148 137.885C88.2381 139.461 89.2377 141.122 90.1048 142.853C90.5635 143.79 90.9539 144.758 91.2732 145.751C92.1864 148.436 92.4094 151.307 91.9218 154.1C91.8758 154.371 91.816 154.643 91.7516 154.914C91.7536 154.936 91.7536 154.957 91.7516 154.979C91.479 156.093 91.0808 157.174 90.5648 158.199C90.206 158.912 89.0514 160.457 89.0514 160.499L89.2446 161.598C89.2676 161.727 89.286 161.86 89.309 161.989C89.7 164.289 90.0404 166.63 90.3716 168.953C90.574 170.389 90.7718 171.824 90.9742 173.254C91.5768 177.56 92.1886 181.861 92.69 186.18C92.7498 186.7 92.805 187.22 92.8602 187.74C92.9614 188.945 93.0718 190.109 93.2006 191.268Z" fill="#263238"/>
<path d="M72.4408 119.03C73.8637 121.176 75.3081 123.315 76.774 125.447C78.2552 127.558 79.7042 129.697 81.2084 131.79L81.2406 131.289L77.6204 135.084L77.3214 135.396L77.6388 135.705C79.1614 137.181 80.7162 138.63 82.2618 140.084L82.133 139.707C81.5718 143.64 80.9692 147.563 80.4678 151.506C79.9664 155.448 79.442 159.385 79.005 163.337C79.7548 159.431 80.4402 155.517 81.0934 151.602C81.7466 147.688 82.363 143.759 82.984 139.835L83.0208 139.615L82.8552 139.458C81.3234 137.991 79.8008 136.514 78.2552 135.065V135.686L81.8064 131.827L82.0272 131.588L81.8386 131.325C80.316 129.242 78.7336 127.185 77.1834 125.143C75.6332 123.101 74.06 121.054 72.4408 119.03Z" fill="#A6A6A6"/>
<path d="M48.806 128.736C33.741 150.02 24.288 181.76 33.5386 187.616C39.6842 191.498 52.4308 156.336 51.9984 156.51C51.0784 156.888 54.4134 144.808 58.5488 130.152C63.1626 113.795 57.4126 116.569 48.806 128.736Z" fill="#D3766A"/>
<path d="M56.3362 119.25C44.6798 128.34 23.1656 170.821 31.0408 186.052C37.4256 198.398 53.6452 156.363 53.2312 155.866C52.8172 155.37 57.3022 139.205 59.133 132.627C60.9638 126.049 62.56 114.416 56.3362 119.25Z" fill="#FCF4F3"/>
<path d="M56.9112 144.219C56.5202 144.895 56.1338 145.567 55.7704 146.262C55.706 146.39 55.6462 146.524 55.5818 146.653C55.6646 146.308 55.7428 145.963 55.8256 145.618C56.1576 144.415 56.4263 143.196 56.6306 141.965C56.6311 141.953 56.6274 141.942 56.6204 141.933C56.6133 141.923 56.6032 141.917 56.5918 141.914C56.5804 141.911 56.5684 141.913 56.5578 141.918C56.5473 141.923 56.5389 141.932 56.534 141.942C56.0971 143.165 55.7255 144.41 55.4208 145.673C55.0758 146.892 54.7262 148.111 54.4088 149.353C54.0914 150.595 53.751 151.809 53.452 153.033C53.1158 154.241 52.8638 155.47 52.6976 156.713C52.6987 156.726 52.7041 156.739 52.7131 156.75C52.722 156.76 52.734 156.767 52.7473 156.77C52.7606 156.773 52.7746 156.772 52.7871 156.767C52.7997 156.761 52.8102 156.752 52.8172 156.74C53.2934 155.532 53.6824 154.292 53.981 153.028C54.3122 151.805 54.6158 150.572 54.9332 149.348C55.0666 148.838 55.1908 148.318 55.315 147.803L55.5082 147.439C55.6922 147.108 55.8578 146.763 56.0188 146.423C56.35 145.71 56.6536 144.992 56.9388 144.265C56.9618 144.219 56.925 144.201 56.9112 144.219Z" fill="#263238"/>
<path d="M60.4624 118.731C59.6344 121.107 58.7819 123.476 57.9048 125.838C57.017 128.188 56.166 130.557 55.246 132.894L55.1126 132.434L59.1652 135.447L59.501 135.695L59.2802 136.059C58.2176 137.798 57.1274 139.513 56.0602 141.234L56.097 140.838C57.4218 144.573 58.788 148.295 60.0622 152.053C61.3364 155.811 62.6382 159.56 63.8572 163.337C62.3668 159.657 60.9209 155.966 59.5194 152.265C58.0842 148.585 56.7594 144.845 55.3518 141.128L55.2782 140.921L55.3932 140.732C56.4604 139.003 57.523 137.264 58.6132 135.548L58.7282 136.16L54.7216 133.073L54.4732 132.88L54.5882 132.59C55.5082 130.258 56.5202 127.958 57.4816 125.644C58.443 123.331 59.4412 121.017 60.4624 118.731Z" fill="#A6A6A6"/>
<path d="M58.2958 122.82C57.9784 118.073 61.8562 116.38 65.412 115.92C69.6302 115.35 72.4362 115.708 74.4556 119.798C76.5808 124.108 77.6756 129.113 78.522 133.832C78.6784 134.711 80.0538 134.495 79.902 133.612C78.9452 128.174 77.5744 118.036 72.1648 115.074C67.1876 112.35 56.3914 115.014 56.925 123.064C56.9848 123.956 58.3556 123.731 58.305 122.843L58.2958 122.82Z" fill="#455A64"/>
<path d="M82.8 135.792C82.9003 136.415 82.8135 137.055 82.5505 137.629C82.2875 138.203 81.8601 138.686 81.3224 139.017C80.7848 139.348 80.161 139.513 79.5299 139.489C78.8989 139.466 78.2889 139.256 77.7772 138.886C77.2656 138.516 76.8751 138.002 76.6554 137.41C76.4356 136.818 76.3963 136.174 76.5425 135.56C76.6887 134.946 77.0138 134.389 77.4767 133.959C77.9396 133.53 78.5195 133.247 79.143 133.147C79.9785 133.014 80.8325 133.218 81.5179 133.714C82.2034 134.21 82.6644 134.957 82.8 135.792Z" fill="#263238"/>
<path d="M81.5212 135.994C81.5812 136.37 81.5283 136.755 81.3694 137.101C81.2105 137.446 80.9526 137.737 80.6284 137.936C80.3042 138.135 79.9282 138.234 79.5481 138.219C79.1679 138.204 78.8007 138.077 78.4928 137.853C78.185 137.63 77.9503 137.32 77.8186 136.963C77.6869 136.606 77.664 136.218 77.7528 135.849C77.8416 135.479 78.0381 135.143 78.3175 134.885C78.5969 134.627 78.9466 134.458 79.3224 134.398C79.8256 134.319 80.3398 134.442 80.752 134.741C81.1643 135.041 81.4409 135.491 81.5212 135.994Z" fill="#FCF4F3"/>
<path d="M63.0936 137.715C66.585 151.055 66.0376 154.325 64.9336 155.857C64.0962 156.929 63.0226 157.794 61.7964 158.383L61.3962 157.499L61.5986 157.959L61.3962 157.499C62.469 156.978 63.4119 156.224 64.1562 155.291C64.9612 154.183 65.6282 151.179 62.1736 137.963L63.0936 137.715Z" fill="#C7C7C7"/>
<path d="M59.7055 158.358L60.2097 159.272C60.3458 159.519 60.6564 159.609 60.9034 159.473L62.9457 158.347C63.1927 158.211 63.2825 157.9 63.1463 157.653L62.6421 156.739C62.506 156.492 62.1954 156.402 61.9485 156.538L59.9061 157.664C59.6592 157.8 59.5694 158.111 59.7055 158.358Z" fill="#263238"/>
<path d="M54.3858 138.032C51.7178 148.088 51.0692 153.589 52.3388 155.356C53.0787 156.295 54.0225 157.053 55.0988 157.573L54.694 158.456C53.4715 157.861 52.4015 156.994 51.566 155.922C50.0526 153.819 50.6 148.562 53.4612 137.784L54.3858 138.032Z" fill="#C7C7C7"/>
<path d="M53.3141 157.729L53.8192 156.821C53.885 156.702 53.9951 156.615 54.1253 156.578C54.2556 156.541 54.3952 156.557 54.5136 156.623L56.552 157.756C56.6714 157.822 56.7596 157.933 56.7971 158.065C56.8346 158.196 56.8183 158.337 56.7519 158.456L56.2468 159.365C56.2142 159.424 56.1705 159.475 56.1179 159.517C56.0654 159.559 56.0052 159.59 55.9407 159.608C55.8762 159.626 55.8087 159.632 55.7421 159.624C55.6755 159.617 55.6111 159.596 55.5525 159.563L53.5141 158.43C53.4545 158.398 53.402 158.354 53.3596 158.301C53.3172 158.248 53.2857 158.187 53.2671 158.122C53.2485 158.056 53.2431 157.988 53.2511 157.921C53.2592 157.853 53.2806 157.788 53.3141 157.729Z" fill="#263238"/>
<path d="M53.1162 137.365C53.5602 135.14 54.1409 132.945 54.855 130.792C55.2788 129.839 55.9508 129.018 56.8008 128.414C56.994 128.414 56.9158 126.698 56.8008 125.313C56.7134 124.094 56.5892 122.673 56.879 122.282C57.0483 122.1 57.2821 121.991 57.5306 121.979C57.779 121.967 58.0223 122.052 58.2084 122.217C58.5442 122.576 58.558 124.002 58.5994 125.226C58.6408 126.606 58.7328 128.308 58.926 128.303C59.7816 128.861 60.4901 129.617 60.9914 130.507C61.9243 132.634 62.6932 134.83 63.2914 137.075C63.5996 138.506 63.1304 138.681 62.721 138.823C62.1414 139.021 61.7734 138.621 61.341 137.039C60.6234 134.532 59.7218 130.309 57.9784 130.318C56.2442 130.488 55.5358 134.959 54.9746 137.448C54.6204 139.007 54.2938 139.159 53.6958 139.021C53.268 138.92 52.8356 138.745 53.1162 137.365Z" fill="#263238"/>
<path d="M94.2632 71.5898L91.3008 139.73L145.687 132.558L148.654 64.4184L94.2632 71.5898Z" fill="#37474F"/>
<path opacity="0.2" d="M100.473 103.316C100.873 109.899 103.233 113.514 103.992 115.621C104.751 117.728 108.132 122.926 108.132 123.193C108.132 123.459 104.949 137.913 104.949 137.913L129.053 134.734C129.053 134.734 128.63 127.126 128.809 126.399C128.989 125.672 134.173 115.133 135.921 110.556C137.669 105.979 140.82 91.885 140.608 86.871C140.397 81.857 135.548 82.7586 134.568 86.6042C133.777 89.6494 130.64 100.579 130.29 100.496C129.941 100.413 132.13 84.8056 131.417 79.1338C130.704 73.462 125.801 75.4952 125.263 79.9434C124.724 84.3916 123.768 99.1438 123.556 99.107C123.344 99.0702 122.457 82.6068 121.601 78.1356C120.745 73.6644 115.239 74.6488 115.051 79.833C114.862 85.0172 116.159 100.57 115.948 100.423C115.736 100.275 113.832 89.9116 112.038 84.5526C110.244 79.1936 104.986 82.0364 105.708 87.4782C106.43 92.92 111.007 108.937 110.768 108.887C110.529 108.836 108.063 104.287 107.047 100.018C106.03 95.749 100.068 96.7288 100.473 103.316Z" fill="white"/>
<path d="M112.994 115.75C113.109 114.894 112.189 115.078 111.656 114.489C111.122 113.901 109.475 112.401 109.425 111.867C109.374 111.334 109.425 110.566 108.712 110.308C108.21 110.119 107.658 110.667 107.29 110.943C106.922 111.219 106.495 111.863 106.637 112.36C106.863 113.132 107.704 113.073 107.778 113.192C107.852 113.312 109.949 115.57 110.165 115.915C110.382 116.26 110.069 117.755 111.062 117.797C111.739 117.82 111.95 117.521 112.318 117.148C112.52 116.974 112.685 116.76 112.801 116.519C112.917 116.279 112.983 116.017 112.994 115.75Z" fill="white"/>
<path d="M116.987 110.786C117.406 109.986 116.527 109.797 116.311 109.002C116.049 108.123 115.216 106.067 115.391 105.519C115.566 104.972 115.851 104.222 115.359 103.679C115 103.298 114.324 103.62 113.901 103.748C113.636 103.831 113.397 103.979 113.207 104.179C113.016 104.38 112.879 104.626 112.81 104.894C112.714 105.745 113.459 106.021 113.482 106.168C113.505 106.315 114.457 109.388 114.512 109.816C114.568 110.244 113.74 111.61 114.581 112.038C115.152 112.332 115.446 112.12 115.902 111.895C116.147 111.791 116.369 111.639 116.555 111.449C116.741 111.259 116.888 111.034 116.987 110.786Z" fill="white"/>
<path d="M121.196 109.903C121.813 109.144 121.003 108.716 120.966 107.787C120.925 106.761 120.612 104.305 120.906 103.753C121.201 103.201 121.698 102.47 121.334 101.761C121.072 101.246 120.318 101.416 119.867 101.444C119.574 101.468 119.292 101.568 119.049 101.735C118.807 101.902 118.613 102.13 118.487 102.396C118.174 103.316 118.85 103.776 118.832 103.96C118.813 104.144 118.997 107.718 118.947 108.197C118.896 108.675 117.723 109.94 118.455 110.625C118.951 111.085 119.296 110.943 119.807 110.823C120.089 110.774 120.359 110.666 120.598 110.508C120.837 110.35 121.04 110.144 121.196 109.903Z" fill="white"/>
<path d="M110.23 96.3608C110.17 97.2072 110.934 97.451 110.957 97.5936C110.957 97.6258 111.026 97.8098 111.118 98.0766L113.45 98.9966C113.109 98.141 112.764 97.2072 112.852 96.8576C112.985 96.3056 113.27 95.5512 112.741 95.0452C112.364 94.6818 111.697 95.0452 111.279 95.1786C111.018 95.2712 110.786 95.4281 110.602 95.6348C110.419 95.8415 110.291 96.0913 110.23 96.3608Z" fill="white"/>
<path d="M112.355 103.689C112.994 103.84 113.247 103.583 113.666 103.275C113.897 103.132 114.097 102.946 114.255 102.725C114.413 102.505 114.526 102.255 114.586 101.991C114.853 101.145 113.942 101.145 113.546 100.446C113.385 100.16 113.119 99.7418 112.847 99.3002L110.34 98.8034C110.8 99.6176 111.757 101.292 111.863 101.596C111.992 101.991 111.421 103.454 112.355 103.689Z" fill="white"/>
<path d="M121.081 99.9672C121.647 99.1714 120.791 98.8172 120.681 97.9064C120.561 96.9036 120.051 94.5162 120.299 93.9458C120.548 93.3754 120.998 92.621 120.575 91.954C120.272 91.471 119.522 91.701 119.066 91.7654C118.775 91.813 118.501 91.9349 118.27 92.1194C118.04 92.304 117.861 92.5449 117.751 92.8188C117.512 93.7388 118.211 94.162 118.211 94.323C118.211 94.484 118.671 98.003 118.671 98.463C118.671 98.923 117.576 100.28 118.367 100.896C118.91 101.315 119.246 101.136 119.747 100.975C120.026 100.906 120.288 100.781 120.517 100.608C120.747 100.434 120.938 100.217 121.081 99.9672Z" fill="white"/>
<path d="M112.176 93.4996C112.608 92.7038 111.752 92.5014 111.532 91.6964C111.283 90.8086 110.612 89.4792 110.759 88.9364C110.906 88.3936 111.246 87.6438 110.759 87.0964C110.405 86.7054 109.724 87.0136 109.305 87.1378C109.039 87.2144 108.797 87.3584 108.603 87.5559C108.409 87.7533 108.269 87.9975 108.197 88.2648C108.086 89.1204 108.822 89.4102 108.841 89.5574C108.859 89.7046 109.655 92.0598 109.701 92.4876C109.747 92.9154 108.9 94.277 109.733 94.7186C110.299 95.0222 110.593 94.8152 111.049 94.599C111.301 94.5017 111.531 94.3541 111.725 94.1651C111.919 93.9761 112.072 93.7497 112.176 93.4996Z" fill="white"/>
<path d="M120.272 90.4268C120.842 89.6356 119.996 89.2676 119.894 88.3568C119.779 87.3494 119.296 84.9574 119.554 84.387C119.812 83.8166 120.262 83.0668 119.848 82.3952C119.545 81.9076 118.795 82.1284 118.34 82.1928C118.048 82.237 117.774 82.3561 117.542 82.5383C117.311 82.7205 117.131 82.9597 117.019 83.2324C116.766 84.1524 117.479 84.5802 117.479 84.7458C117.479 84.9114 117.903 88.4258 117.884 88.9088C117.866 89.3918 116.776 90.7166 117.558 91.3422C118.096 91.77 118.432 91.5906 118.938 91.4342C119.217 91.367 119.48 91.2428 119.71 91.0695C119.939 90.8961 120.13 90.6774 120.272 90.4268Z" fill="white"/>
<path d="M125.838 111.108C126.587 110.506 125.953 109.862 126.146 108.919C126.357 107.884 126.67 105.335 127.066 104.857C127.461 104.379 128.101 103.776 127.944 102.971C127.829 102.387 127.093 102.359 126.67 102.272C126.391 102.224 126.103 102.254 125.84 102.36C125.577 102.465 125.349 102.642 125.18 102.87C124.674 103.693 125.18 104.369 125.115 104.53C125.051 104.691 124.347 108.344 124.195 108.808C124.044 109.273 122.65 110.244 123.151 111.108C123.496 111.711 123.846 111.647 124.347 111.656C124.621 111.68 124.896 111.643 125.154 111.549C125.411 111.454 125.645 111.304 125.838 111.108Z" fill="white"/>
<path d="M128.23 101.283C128.897 100.579 128.147 100.073 128.193 99.1346C128.243 98.1042 128.151 95.611 128.487 95.082C128.823 94.553 129.37 93.8722 129.081 93.127C128.869 92.5842 128.119 92.667 127.678 92.667C127.388 92.6655 127.104 92.7414 126.854 92.8871C126.604 93.0327 126.398 93.2426 126.256 93.495C125.874 94.369 126.486 94.9302 126.459 95.0958C126.431 95.2614 126.288 98.877 126.196 99.3554C126.104 99.8338 124.858 100.988 125.506 101.747C125.966 102.267 126.298 102.143 126.804 102.069C127.083 102.046 127.355 101.964 127.601 101.829C127.847 101.693 128.061 101.507 128.23 101.283Z" fill="white"/>
<path d="M129.081 91.4112C129.729 90.6844 128.952 90.2106 128.961 89.2814C128.961 88.2556 128.851 86.273 129.168 85.7348C129.485 85.1966 130.005 84.4928 129.688 83.766C129.453 83.2416 128.703 83.3704 128.257 83.375C127.97 83.3871 127.692 83.4748 127.449 83.629C127.207 83.7833 127.01 83.9987 126.877 84.2536C126.528 85.1368 127.162 85.6704 127.139 85.8314C127.116 85.9924 127.052 89.1112 126.974 89.585C126.896 90.0588 125.69 91.264 126.376 91.9908C126.836 92.4876 127.185 92.3496 127.691 92.2576C127.969 92.2203 128.236 92.1258 128.475 91.9801C128.714 91.8344 128.92 91.6407 129.081 91.4112Z" fill="white"/>
<path d="M129.642 113.031C130.405 112.691 130.047 111.946 130.438 111.15C130.87 110.271 131.482 108.362 131.933 108.04C132.383 107.718 133.041 107.341 133.115 106.577C133.17 106.021 132.581 105.8 132.259 105.611C132.046 105.493 131.802 105.442 131.559 105.467C131.316 105.492 131.087 105.59 130.902 105.749C130.286 106.357 130.52 107.097 130.442 107.226C130.364 107.355 129.145 110.152 128.897 110.529C128.648 110.906 127.287 111.407 127.471 112.332C127.599 112.962 127.903 112.999 128.303 113.142C128.519 113.233 128.753 113.271 128.986 113.251C129.219 113.232 129.444 113.157 129.642 113.031Z" fill="white"/>
<path d="M133.915 104.691C134.536 104.199 134.016 103.67 134.177 102.893C134.357 102.042 134.522 100.565 134.858 100.174C135.194 99.7832 135.714 99.2864 135.59 98.624C135.498 98.141 134.895 98.118 134.545 98.0444C134.316 98.0035 134.079 98.0275 133.862 98.1136C133.645 98.1997 133.456 98.3446 133.317 98.532C132.899 99.2082 133.317 99.7648 133.257 99.912C133.198 100.059 132.71 102.428 132.577 102.81C132.443 103.192 131.302 103.988 131.712 104.714C131.988 105.207 132.278 105.174 132.687 105.174C132.915 105.192 133.144 105.157 133.357 105.074C133.569 104.99 133.76 104.859 133.915 104.691Z" fill="white"/>
<path d="M136.036 97.152C136.657 96.6644 136.142 96.1308 136.307 95.3534C136.496 94.5024 136.74 92.8234 137.075 92.4324C137.411 92.0414 137.94 91.5538 137.816 90.8868C137.729 90.4038 137.126 90.3762 136.781 90.298C136.554 90.2519 136.318 90.2706 136.101 90.3519C135.884 90.4332 135.694 90.574 135.553 90.758C135.13 91.4296 135.53 91.9908 135.484 92.138C135.438 92.2852 134.849 94.852 134.711 95.2384C134.573 95.6248 133.428 96.4022 133.832 97.1336C134.108 97.6304 134.398 97.5936 134.808 97.5936C135.032 97.6156 135.259 97.5875 135.471 97.5111C135.684 97.4347 135.877 97.3121 136.036 97.152Z" fill="white"/>
<path d="M107.783 109.347C108.132 108.519 107.244 108.427 106.932 107.663C106.582 106.83 105.828 105.759 105.933 105.207C106.039 104.655 106.288 103.891 105.731 103.422C105.331 103.081 104.678 103.459 104.264 103.629C104.007 103.733 103.781 103.9 103.607 104.115C103.432 104.329 103.315 104.585 103.265 104.857C103.265 105.703 104.029 105.901 104.061 106.039C104.093 106.177 105.073 108.238 105.17 108.652C105.266 109.066 104.558 110.492 105.446 110.819C106.053 111.049 106.329 110.819 106.771 110.547C107.011 110.425 107.224 110.255 107.398 110.049C107.572 109.843 107.702 109.604 107.783 109.347Z" fill="white"/>
<path d="M125.58 118.786C126.845 118.662 128.179 115.676 127.59 114.365C126.836 112.668 122.82 114.269 122.144 115.925C121.624 117.203 122.825 116.385 123.855 117.415C124.619 118.169 124.987 118.85 125.58 118.786Z" fill="white"/>
<path d="M123.234 112.585C122.59 111.518 118.634 111.872 116.794 112.732C115.718 113.234 114.034 114.977 114.034 115.764C114.034 116.55 115.037 117.893 115.874 117.604C117.118 117.243 118.386 116.973 119.669 116.794C121.284 116.656 123.772 113.487 123.234 112.585Z" fill="white"/>
<path d="M137.701 89.8196C137.811 89.7649 137.908 89.6879 137.987 89.5935C138.066 89.4992 138.124 89.3895 138.158 89.2715C138.193 89.1534 138.202 89.0296 138.186 88.9078C138.169 88.786 138.128 88.6688 138.064 88.5638C137.917 88.3338 138.446 86.6732 137.844 86.5444C137.241 86.4156 137.039 87.9244 136.661 88.2832C136.284 88.642 135.81 89.3642 136.372 89.723C136.572 89.837 136.795 89.9048 137.025 89.9215C137.255 89.9382 137.486 89.9034 137.701 89.8196Z" fill="white"/>
<path d="M129.154 82.5608C129.265 82.4787 129.356 82.3735 129.422 82.2524C129.488 82.1314 129.527 81.9975 129.535 81.8599C129.544 81.7224 129.523 81.5847 129.473 81.4563C129.423 81.3278 129.346 81.2119 129.246 81.1164C129.012 80.914 129.186 78.9958 128.45 79.028C127.714 79.0602 127.88 80.7116 127.53 81.213C127.181 81.7144 126.831 82.593 127.576 82.8276C127.844 82.893 128.122 82.903 128.393 82.8572C128.664 82.8113 128.923 82.7104 129.154 82.5608Z" fill="white"/>
<path d="M119.089 81.2636C119.203 81.1839 119.297 81.0795 119.364 80.9583C119.432 80.8371 119.471 80.7022 119.479 80.5637C119.487 80.4253 119.463 80.2868 119.41 80.1586C119.357 80.0305 119.276 79.916 119.172 79.8238C118.938 79.626 119.099 77.7078 118.358 77.7446C117.617 77.7814 117.801 79.4282 117.47 79.9342C117.139 80.4402 116.78 81.3142 117.525 81.5442C117.791 81.6067 118.067 81.6141 118.336 81.5658C118.605 81.5175 118.862 81.4147 119.089 81.2636Z" fill="white"/>
<path d="M109.995 86.4018C110.096 86.3106 110.175 86.1974 110.226 86.0709C110.277 85.9444 110.298 85.8079 110.288 85.6721C110.277 85.5362 110.236 85.4044 110.167 85.2869C110.098 85.1694 110.003 85.0693 109.889 84.9942C109.627 84.8332 109.535 82.9564 108.795 83.0944C108.054 83.2324 108.45 84.801 108.178 85.3392C107.907 85.8774 107.658 86.7836 108.445 86.8894C109.005 86.9346 109.562 86.7597 109.995 86.4018Z" fill="white"/>
<path d="M104.912 102.58C105.011 102.488 105.088 102.375 105.138 102.25C105.188 102.124 105.21 101.989 105.202 101.854C105.194 101.72 105.157 101.588 105.092 101.47C105.028 101.351 104.938 101.248 104.829 101.168C104.567 101.002 104.507 99.1162 103.767 99.245C103.026 99.3738 103.394 100.952 103.114 101.485C102.833 102.019 102.575 102.925 103.357 103.045C103.917 103.101 104.476 102.934 104.912 102.58Z" fill="white"/>
<path d="M115.501 119.089C115.589 118.629 113.836 117.056 113.316 117.167C112.797 117.277 111.711 119.085 111.743 119.733C111.775 120.382 112.939 121.619 113.542 121.247C114.144 120.874 115.34 119.936 115.501 119.089Z" fill="white"/>
<path d="M111.127 137.117L113.257 136.836C113.947 132.489 114.784 127.544 115.184 125.198C115.276 124.665 115.345 124.278 115.386 124.039C115.612 122.719 114.848 122.066 114.167 122.047C113.979 122.035 113.792 122.084 113.634 122.187C113.476 122.29 113.355 122.441 113.289 122.618C112.994 123.418 111.886 131.298 111.127 137.117Z" fill="white"/>
<path d="M115.768 125.12C116.316 125.782 116.854 126.261 116.835 126.449C116.817 126.638 116.61 130.962 116.352 136.427L121.146 135.792C121.445 130.732 121.794 126.67 122.125 126.04C123.045 124.32 126.725 121.675 124.812 119.623C122.898 117.571 120.805 118.142 119.402 118.243C117.999 118.344 117.962 118.091 115.524 120.695C115.166 121.057 114.901 121.5 114.752 121.987C114.402 123.183 115.092 124.297 115.768 125.12Z" fill="white"/>
<path d="M148.12 89.1158C150.829 92.4784 156.487 96.1124 157.601 99.1208C157.901 99.8525 157.958 100.662 157.762 101.428C157.566 102.194 157.129 102.877 156.515 103.376C156.515 103.376 159.974 104.181 160.535 107.079C160.821 108.574 158.695 110.34 158.695 110.34C158.695 110.34 161.455 111.108 161.777 113.717C162.049 115.791 159.873 117.254 159.873 117.254C159.873 117.254 162.173 119.218 161.759 121.422C160.94 125.893 143.442 130.07 139.219 124.269C137.246 121.569 141.574 120.778 141.574 120.778C141.574 120.778 135.074 120.41 134.122 116.822C133.17 113.234 138.856 112.553 138.856 112.553C138.856 112.553 132.558 112.139 131.956 108.325C131.316 104.351 137.121 104.645 137.121 104.645C137.121 104.645 132.6 102.939 132.802 99.9074C133.129 94.9072 141.896 98.9874 145.521 97.175L146.128 90.3256L148.12 89.1158Z" fill="#D3766A"/>
<path d="M152.945 93.7894C150.645 90.3808 154.192 84.6538 152.485 81.0796C150.185 76.245 145.622 82.616 146.11 90.321L147.545 96.2412L152.945 93.7894Z" fill="#D3766A"/>
<path d="M159.56 117.535C159.572 117.53 159.585 117.53 159.596 117.534C159.608 117.539 159.617 117.548 159.622 117.56C159.627 117.571 159.627 117.585 159.623 117.596C159.618 117.608 159.609 117.617 159.597 117.622C154.178 120.382 147.37 121.785 141.317 120.842C141.119 120.81 141.082 120.474 141.317 120.465C147.734 120.249 153.415 119.536 159.56 117.535Z" fill="#263238"/>
<path d="M158.783 110.359C158.852 110.359 158.889 110.446 158.82 110.478C153.221 113.312 145.512 114.664 138.662 112.778C138.428 112.714 138.281 112.419 138.557 112.475C143.207 113.376 153.263 112.185 158.783 110.359Z" fill="#263238"/>
<path d="M136.62 104.346C143.258 105.915 149.735 105.197 156.276 103.505C156.363 103.505 156.386 103.606 156.317 103.643C153.341 105.345 149.058 105.989 145.682 106.209C142.553 106.47 139.409 105.907 136.565 104.576C136.464 104.526 136.491 104.314 136.62 104.346Z" fill="#263238"/>
<path d="M62.0172 118.68C62.3714 119.6 65.849 125.677 70.196 125.677C72.956 125.677 72.266 116.306 72.266 116.306L72.312 115.722L72.9422 107.548L62.7808 102.902L61.3272 102.304C61.3272 102.304 61.2996 104.553 61.295 107.364V107.764C61.295 107.921 61.295 108.072 61.295 108.224C61.295 108.643 61.295 109.071 61.295 109.494C61.295 109.82 61.295 110.133 61.295 110.474C61.295 110.814 61.295 111.145 61.318 111.486C61.456 114.834 61.87 118.275 62.0172 118.68Z" fill="#D3766A"/>
<path d="M61.295 107.35C62.4141 109.46 63.9794 111.301 65.882 112.744C67.7846 114.187 69.9788 115.199 72.312 115.708L72.9422 107.534L62.7808 102.902L61.3272 102.304C61.3272 102.304 61.2996 104.553 61.295 107.35Z" fill="#263238"/>
<path d="M82.731 93.6744C85.767 107.737 77.671 111.154 74.6488 111.794C71.8888 112.387 62.445 114.048 57.9738 100.372C53.5026 86.6962 59.0778 80.8404 65.3062 79.1522C71.5346 77.464 79.695 79.6076 82.731 93.6744Z" fill="#D3766A"/>
<path d="M57.3758 98.3894C58.9536 98.2284 62.8958 93.7066 62.6934 86.0614C62.6934 86.0614 62.3944 92.9384 61.9206 93.9642C61.4468 94.99 64.124 91.4204 64.0504 85.2518C64.0504 85.2518 67.5648 87.5518 70.4904 88.2648C73.416 88.9778 75.2146 88.8536 75.4124 88.6374C75.6102 88.4212 71.2724 87.2574 70.058 85.9602C70.058 85.9602 77.947 89.2354 81.5258 89.355C81.9398 89.355 82.0778 80.8634 76.4106 77.4962C70.7434 74.129 62.1506 78.3794 59.9196 80.7484C59.9196 80.7484 57.1596 81.259 54.3536 85.4634C51.5476 89.6678 55.66 98.5642 57.3758 98.3894Z" fill="#263238"/>
<path d="M60.26 99.2588C60.26 99.2588 56.58 95.197 54.6986 96.5632C52.8172 97.9294 55.9774 104.093 58.4614 104.678C58.7751 104.774 59.1051 104.806 59.4316 104.772C59.758 104.738 60.0742 104.638 60.3611 104.478C60.648 104.319 60.8999 104.103 61.1014 103.844C61.303 103.585 61.4502 103.288 61.5342 102.971L60.26 99.2588Z" fill="#D3766A"/>
<path d="M55.6232 98.3112C55.5864 98.3112 55.5864 98.3664 55.6232 98.3756C57.3758 98.8356 58.443 100.271 59.2618 101.793C58.6868 101.241 57.9738 100.988 57.2194 101.678C57.1826 101.715 57.2194 101.78 57.2792 101.766C57.5592 101.635 57.8729 101.594 58.177 101.649C58.4811 101.705 58.7606 101.853 58.9766 102.074C59.3381 102.446 59.6574 102.856 59.9288 103.298C60.0254 103.436 60.283 103.325 60.2048 103.16C60.2048 103.16 60.2048 103.16 60.2048 103.123C59.9564 100.993 57.9278 98.233 55.6232 98.3112Z" fill="#263238"/>
<path d="M79.1614 92.3956C78.821 92.3956 78.5082 92.368 78.1678 92.3496C77.8172 92.3823 77.4657 92.2965 77.1696 92.1058C77.0869 92.0288 77.0321 91.9264 77.0138 91.8149C76.9954 91.7033 77.0147 91.5889 77.0684 91.4894C77.2051 91.31 77.3871 91.1703 77.5957 91.0846C77.8043 90.9989 78.0319 90.9704 78.2552 91.0018C78.7175 90.9955 79.1661 91.1592 79.5156 91.4618C79.5903 91.5364 79.6418 91.6309 79.664 91.7341C79.6862 91.8373 79.6781 91.9446 79.6406 92.0433C79.6032 92.142 79.5381 92.2277 79.4531 92.2902C79.368 92.3527 79.2667 92.3893 79.1614 92.3956Z" fill="#263238"/>
<path d="M69.115 92.3818C69.4278 92.2785 69.7349 92.1587 70.035 92.023C70.379 91.9422 70.6874 91.7517 70.9136 91.4802C70.9658 91.3804 70.9842 91.2663 70.9659 91.1551C70.9477 91.0439 70.8938 90.9417 70.8124 90.8638C70.6261 90.7355 70.4089 90.6593 70.1832 90.6432C69.9576 90.627 69.7317 90.6714 69.529 90.7718C69.0872 90.9077 68.7128 91.205 68.4802 91.6044C68.4315 91.6992 68.4114 91.8061 68.4226 91.9121C68.4337 92.018 68.4756 92.1185 68.543 92.201C68.6104 92.2836 68.7004 92.3446 68.802 92.3767C68.9036 92.4089 69.0124 92.4106 69.115 92.3818Z" fill="#263238"/>
<path d="M72.036 95.956C72.036 95.9192 71.9716 96.0158 71.9762 96.0526C72.1878 97.0094 72.266 98.141 71.4564 98.6194C71.4288 98.6194 71.4564 98.6838 71.4564 98.6746C72.5052 98.3296 72.3856 96.83 72.036 95.956Z" fill="#263238"/>
<path d="M70.9918 95.1096C69.4232 95.2798 69.8786 98.4032 71.3322 98.2468C72.7858 98.0904 72.3074 94.967 70.9918 95.1096Z" fill="#263238"/>
<path d="M70.403 95.3626C70.1546 95.5788 69.943 95.933 69.6072 96.0112C69.2714 96.0894 68.8988 95.818 68.6044 95.5512C68.5722 95.5236 68.5492 95.5512 68.5538 95.5926C68.632 96.1952 68.954 96.7748 69.6072 96.7702C70.2604 96.7656 70.5502 96.1768 70.61 95.5512C70.6238 95.427 70.4996 95.2752 70.403 95.3626Z" fill="#263238"/>
<path d="M77.5606 94.7278C77.5606 94.691 77.6434 94.7646 77.6434 94.806C77.7492 95.7766 78.0298 96.876 78.9498 97.0784C78.9774 97.0784 78.982 97.1336 78.9498 97.1336C77.8596 97.129 77.5008 95.68 77.5606 94.7278Z" fill="#263238"/>
<path d="M78.2874 93.5962C79.8284 93.265 80.3804 96.3562 78.9498 96.6828C77.5192 97.0094 76.9902 93.8768 78.2874 93.5962Z" fill="#263238"/>
<path d="M78.9682 93.6882C79.2442 93.8078 79.5432 94.0654 79.8376 94.0332C80.132 94.001 80.3758 93.6146 80.5368 93.2512C80.5368 93.2144 80.5828 93.2512 80.5874 93.2788C80.7116 93.8676 80.6242 94.5208 80.0722 94.737C79.5202 94.9532 79.097 94.4932 78.8532 93.9274C78.8072 93.84 78.8578 93.6376 78.9682 93.6882Z" fill="#263238"/>
<path d="M73.1124 103.413C73.37 103.615 73.6322 103.905 73.991 103.9C74.3523 103.857 74.7004 103.738 75.0122 103.551C75.0152 103.548 75.0188 103.545 75.0227 103.544C75.0267 103.542 75.0309 103.541 75.0352 103.541C75.0395 103.541 75.0437 103.542 75.0476 103.544C75.0516 103.545 75.0552 103.548 75.0582 103.551C75.0612 103.554 75.0636 103.557 75.0652 103.561C75.0669 103.565 75.0677 103.569 75.0677 103.574C75.0677 103.578 75.0669 103.582 75.0652 103.586C75.0636 103.59 75.0612 103.594 75.0582 103.597C74.9382 103.802 74.765 103.971 74.557 104.086C74.3489 104.201 74.1136 104.257 73.876 104.25C73.6721 104.218 73.4823 104.126 73.3307 103.986C73.1792 103.846 73.0727 103.664 73.025 103.463C73.002 103.408 73.0756 103.38 73.1124 103.413Z" fill="#263238"/>
<path d="M76.6038 99.2818C76.6038 99.2818 77.0638 100.919 77.1742 101.582C77.1742 101.646 74.8742 101.531 73.0664 102.005C72.9836 102.028 72.887 101.885 73.0664 101.775C74.1934 101.136 76.5624 101.09 76.5624 101.09C76.5624 100.979 75.7482 98.693 75.854 98.67C76.3899 98.6324 76.9285 98.668 77.4548 98.7758C76.6544 95.8088 75.3802 92.9936 74.6258 90.0358C74.6183 90.0136 74.6196 89.9894 74.6294 89.9681C74.6392 89.9468 74.6567 89.9301 74.6785 89.9213C74.7002 89.9125 74.7244 89.9123 74.7463 89.9207C74.7681 89.9292 74.7859 89.9457 74.796 89.9668C76.3416 92.8188 77.3398 96.2136 78.246 99.2588C78.3794 99.6452 76.8936 99.36 76.6038 99.2818Z" fill="#263238"/>
<path d="M72.9422 122.227C72.7628 122.047 73.1998 118.478 73.0296 118.335C72.5696 117.949 71.4656 119.048 69.506 118.979C66.0974 118.864 62.4312 115.603 61.6446 115.869C60.858 116.136 60.927 120.069 60.7246 120.184C60.5222 120.299 67.8408 126.817 70.1638 126.196C72.4868 125.575 72.9422 122.227 72.9422 122.227Z" fill="#FF7C65"/>
<path d="M71.76 121.9C71.8382 121.067 71.9808 120.244 72.0222 119.407C72.0261 119.392 72.0348 119.379 72.0468 119.37C72.0589 119.361 72.0737 119.355 72.0889 119.355C72.1041 119.355 72.1189 119.361 72.131 119.37C72.143 119.379 72.1517 119.392 72.1556 119.407C72.2085 120.255 72.2085 121.107 72.1556 121.955C72.09 122.784 71.9264 123.603 71.668 124.393C71.6648 124.403 71.6584 124.412 71.6497 124.419C71.641 124.425 71.6305 124.429 71.6197 124.429C71.6089 124.429 71.5984 124.425 71.5897 124.419C71.581 124.412 71.5746 124.403 71.5714 124.393C71.5944 123.533 71.6818 122.705 71.76 121.9Z" fill="#263238"/>
<path d="M69.7912 124.701C69.7912 124.508 69.8234 124.31 69.8418 124.117C69.8786 123.689 69.9246 123.262 69.9706 122.834C70.0166 122.406 70.0534 121.978 70.0902 121.55C70.127 121.123 70.2006 120.699 70.196 120.262C70.196 120.175 70.3248 120.18 70.3294 120.262C70.3616 120.695 70.4444 121.118 70.4628 121.555C70.4788 122.001 70.4696 122.448 70.4352 122.894C70.4044 123.308 70.346 123.72 70.2604 124.126C70.219 124.338 70.1638 124.545 70.104 124.747C70.0442 124.95 69.9246 125.18 69.8648 125.396C69.8648 125.451 69.7544 125.437 69.7636 125.396C69.7958 125.166 69.7728 124.927 69.7912 124.701Z" fill="#263238"/>
<path d="M68.1444 119.862C68.1444 119.784 68.2732 119.812 68.2778 119.885C68.3872 121.434 68.2317 122.989 67.8178 124.485C67.8178 124.495 67.8139 124.504 67.807 124.511C67.8001 124.518 67.7908 124.522 67.781 124.522C67.7712 124.522 67.7619 124.518 67.755 124.511C67.7481 124.504 67.7442 124.495 67.7442 124.485C67.6752 122.933 67.8098 121.379 68.1444 119.862Z" fill="#263238"/>
<path d="M65.941 121.316C65.9686 120.952 65.9778 120.589 66.0238 120.23C66.0448 119.885 66.0988 119.544 66.1848 119.209C66.1887 119.194 66.1973 119.181 66.2094 119.172C66.2215 119.163 66.2363 119.158 66.2515 119.158C66.2667 119.158 66.2815 119.163 66.2936 119.172C66.3056 119.181 66.3143 119.194 66.3182 119.209C66.3819 119.547 66.4065 119.891 66.3918 120.235C66.3918 120.607 66.3688 120.989 66.3412 121.362C66.2684 122.08 66.1517 122.793 65.9916 123.496C65.9916 123.556 65.8904 123.538 65.895 123.496C65.9088 122.765 65.8858 122.038 65.941 121.316Z" fill="#263238"/>
<path d="M64.2252 118.174C64.2252 118.1 64.354 118.123 64.354 118.197C64.407 119.483 64.2785 120.77 63.9722 122.02C63.9722 122.029 63.9683 122.039 63.9614 122.046C63.9545 122.053 63.9452 122.056 63.9354 122.056C63.9256 122.056 63.9163 122.053 63.9094 122.046C63.9025 122.039 63.8986 122.029 63.8986 122.02C63.8243 120.729 63.9342 119.434 64.2252 118.174Z" fill="#263238"/>
<path d="M62.0678 118.988C62.0678 118.671 62.3898 117.208 62.4404 116.918C62.4404 116.822 62.583 116.84 62.5738 116.941C62.537 117.291 62.4404 118.662 62.399 118.997C62.3116 119.664 62.2472 120.336 62.146 120.998C62.146 121.026 62.0954 121.04 62.0954 120.998C62.0338 120.33 62.0246 119.658 62.0678 118.988Z" fill="#263238"/>
<path d="M35.0888 188.563C44.4498 192.059 69.1288 177.178 83.5958 164.869C86.3558 162.527 63.7284 138.787 61.0558 141.583C58.25 144.575 55.2587 147.386 52.0996 150.001C51.2716 150.567 24.84 184.727 35.0888 188.563Z" fill="#D3766A"/>
<path d="M101.011 125.479C102.157 128.749 93.8538 130.884 93.8538 130.884C95.3004 131.258 96.5721 132.123 97.451 133.331C98.8908 135.539 96.071 138.764 96.071 138.764C97.491 139.461 98.6676 140.57 99.4474 141.947C100.616 144.196 98.2284 147.858 98.2284 147.858C99.1786 149.22 99.6079 150.879 99.4382 152.531C98.7988 156.924 92.368 159.224 88.6696 161.437C84.5583 164.006 80.663 166.906 77.0224 170.108L59.4734 143.226C59.4734 143.226 73.2412 126.997 78.154 125.566C82.2894 124.356 99.2634 120.479 101.011 125.479Z" fill="#D3766A"/>
<path d="M93.7572 130.815C89.0468 131.045 84.4008 132.402 79.9572 133.759C79.9371 133.765 79.9202 133.779 79.9103 133.797C79.9003 133.816 79.8982 133.838 79.9043 133.858C79.9104 133.878 79.9242 133.895 79.9428 133.905C79.9613 133.915 79.9831 133.917 80.0032 133.911C84.433 132.531 89.3412 132.259 93.8032 131.036C93.8277 131.025 93.8478 131.007 93.8601 130.983C93.8724 130.959 93.8761 130.932 93.8707 130.906C93.8653 130.88 93.851 130.857 93.8303 130.84C93.8096 130.824 93.7838 130.815 93.7572 130.815Z" fill="#263238"/>
<path d="M95.8318 138.46C94.7673 138.613 93.7278 138.907 92.7406 139.334C91.6673 139.72 90.5939 140.124 89.5206 140.544C87.4 141.386 85.2978 142.273 83.2278 143.226C83.1358 143.267 83.1772 143.419 83.2738 143.377C85.3898 142.545 87.515 141.74 89.6632 140.995C90.7396 140.624 91.8129 140.26 92.8832 139.904C93.9241 139.634 94.9316 139.248 95.887 138.754C95.9144 138.737 95.9359 138.712 95.9488 138.683C95.9618 138.653 95.9655 138.62 95.9596 138.588C95.9536 138.557 95.9382 138.527 95.9155 138.505C95.8927 138.482 95.8635 138.466 95.8318 138.46Z" fill="#263238"/>
<path d="M98.1318 147.89C97.2118 147.927 96.2366 148.474 95.3718 148.81C94.415 149.215 93.4536 149.61 92.4922 150.006C90.5694 150.788 88.6466 151.575 86.6916 152.306C86.595 152.343 86.6456 152.495 86.7422 152.458C88.7294 151.74 90.7212 151.05 92.7222 150.31C93.6943 149.951 94.6634 149.584 95.6294 149.21C96.4528 148.893 97.5154 148.594 98.1778 147.982C98.2146 147.954 98.1824 147.89 98.1318 147.89Z" fill="#263238"/>
<path d="M32.3196 187.565C41.929 197.616 76.0656 171.709 76.0656 171.709L61.916 140.466C61.916 140.466 53.6866 149.518 53.176 149.118C52.6654 148.718 22.7148 177.514 32.3196 187.565Z" fill="#FCF4F3"/>
<path d="M70.5824 171.497C68.448 167.454 60.329 150.604 58.8202 146.846C58.7144 146.584 58.857 146.455 58.9996 146.712C65.6788 158.672 68.8482 167.334 70.7388 171.405C70.7848 171.506 70.633 171.58 70.5824 171.497Z" fill="#263238"/>
<path d="M61.6906 140.576C60.7063 141.361 59.7836 142.221 58.9306 143.147C58.1348 143.943 57.3436 144.734 56.5616 145.539C54.8596 147.287 53.2036 149.072 51.5568 150.871C49.91 152.669 48.2908 154.482 46.69 156.317C45.0892 158.153 43.6126 160.08 42.0164 161.92C41.9474 162.003 42.0808 162.104 42.1544 162.021C43.792 160.209 45.5538 158.502 47.2144 156.727L52.1548 151.506C53.8016 149.767 55.4576 148.042 57.0998 146.298C57.9048 145.447 58.7006 144.587 59.501 143.732C60.4016 142.85 61.2394 141.906 62.008 140.907C62.0336 140.862 62.044 140.811 62.0377 140.759C62.0314 140.708 62.0087 140.66 61.973 140.623C61.9373 140.586 61.8905 140.561 61.8396 140.553C61.7887 140.544 61.7364 140.552 61.6906 140.576Z" fill="#263238"/>
<path d="M75.9 170.977C75.808 170.766 75.6838 170.757 75.7206 171.005C75.7206 171.138 75.8034 171.373 75.8264 171.506C74.6304 172.298 70.3064 175.352 69.2714 176.106C67.0542 177.652 64.929 179.303 62.6014 180.674C35.1578 196.793 32.016 186.53 31.3536 186.272C31.2524 186.231 31.2938 186.295 31.3536 186.392C31.8136 187.234 35.2038 197.892 62.8958 181.245C65.2418 179.832 67.574 178.374 69.7958 176.792C70.9136 176.001 72.0084 175.177 73.0894 174.34C74.173 173.594 75.1779 172.741 76.0886 171.792C76.1207 171.753 76.1416 171.707 76.1489 171.657C76.1562 171.608 76.1496 171.557 76.13 171.511C76.061 171.332 75.9828 171.152 75.9 170.977Z" fill="#263238"/>
<path d="M15.364 191.268L40.273 191.158L65.182 191.116L115 191.038L164.818 191.116L189.727 191.158L214.636 191.268L189.727 191.383L164.818 191.42L115 191.498L65.182 191.42L40.273 191.383L15.364 191.268Z" fill="#263238"/>
<path d="M141.505 194.654H82.6436V197.294H141.505V194.654Z" fill="#455A64"/>
<path d="M141.505 194.654H111.881V197.294H141.505V194.654Z" fill="#263238"/>
<path d="M115.069 197.289H172.436L179.934 158.332H122.567L115.069 197.289Z" fill="#455A64"/>
<path d="M144.008 177.808C143.959 178.253 144.006 178.703 144.145 179.129C144.284 179.554 144.512 179.945 144.813 180.275C145.114 180.606 145.483 180.869 145.894 181.046C146.304 181.224 146.748 181.312 147.195 181.304C148.147 181.287 149.058 180.921 149.758 180.277C150.459 179.633 150.898 178.755 150.995 177.808C151.043 177.364 150.997 176.914 150.858 176.489C150.719 176.064 150.491 175.673 150.189 175.343C149.888 175.013 149.52 174.75 149.109 174.573C148.698 174.397 148.254 174.309 147.807 174.317C146.857 174.334 145.946 174.699 145.246 175.342C144.546 175.986 144.105 176.863 144.008 177.808Z" fill="#263238"/>
<path d="M118.68 58.9168C118.357 61.9987 117.185 64.9304 115.293 67.3849C113.402 69.8393 110.865 71.7201 107.967 72.8173C105.069 73.9144 101.924 74.185 98.8807 73.5987C95.8379 73.0124 93.0178 71.5923 90.735 69.4968L82.3676 70.725L86.572 63.48C85.607 61.1245 85.1924 58.5798 85.3597 56.0398C85.527 53.4998 86.2719 51.0315 87.5376 48.8229C88.8033 46.6144 90.5564 44.7238 92.6634 43.2954C94.7703 41.867 97.1755 40.9383 99.6957 40.5801C102.216 40.2219 104.785 40.4437 107.206 41.2286C109.628 42.0134 111.838 43.3407 113.669 45.1091C115.5 46.8776 116.903 49.0406 117.771 51.4334C118.64 53.8262 118.951 56.3857 118.68 58.9168Z" fill="white"/>
<path d="M118.68 58.9168C118.357 61.9991 117.191 64.9326 115.308 67.3946C114.837 68.0067 114.33 68.5904 113.79 69.1426C113.234 69.6763 112.644 70.1741 112.024 70.633C109.543 72.5041 106.593 73.6534 103.5 73.9542C102.728 74.0247 101.951 74.0401 101.177 74.0002C100.405 73.9805 99.6359 73.8989 98.877 73.7564C95.7901 73.1934 92.9222 71.7786 90.597 69.6716L90.7948 69.736L82.4366 71.0194L81.8294 71.1114L82.1376 70.5778L86.3006 63.3282L86.2776 63.6134C85.2973 61.2152 84.8805 58.624 85.0591 56.0393C85.2377 53.4546 86.0071 50.9454 87.308 48.7048C88.6112 46.4747 90.4025 44.5686 92.5474 43.1296C94.6916 41.7082 97.1302 40.7913 99.6797 40.4479C102.229 40.1045 104.824 40.3435 107.267 41.147C109.682 41.9695 111.882 43.3211 113.707 45.103C115.527 46.8794 116.92 49.0455 117.782 51.4383C118.643 53.8311 118.95 56.3881 118.68 58.9168ZM118.68 58.9168C118.944 56.4 118.628 53.8562 117.756 51.4806C116.883 49.1051 115.478 46.9611 113.648 45.2132C111.818 43.4654 109.612 42.1602 107.199 41.3979C104.786 40.6356 102.23 40.4365 99.728 40.8158C97.2513 41.1915 94.8921 42.1242 92.828 43.5436C90.7858 44.9804 89.0798 46.8434 87.8278 49.0038C86.5932 51.1709 85.8666 53.5899 85.7026 56.0786C85.5472 58.5648 85.9495 61.0543 86.8802 63.365L86.94 63.5168L86.8618 63.6548L82.6482 70.8722L82.3492 70.4122L90.7258 69.2392H90.8408L90.9236 69.3128C93.1548 71.4127 95.9288 72.8467 98.9322 73.4528C99.6793 73.6067 100.438 73.699 101.2 73.7288C101.966 73.7844 102.734 73.7844 103.5 73.7288C105.027 73.6126 106.531 73.2828 107.967 72.749C109.411 72.225 110.77 71.492 112.001 70.5732C112.619 70.1167 113.208 69.6236 113.767 69.0966C114.311 68.5545 114.819 67.9784 115.29 67.3716C117.177 64.9191 118.35 61.9934 118.68 58.9168Z" fill="#263238"/>
<path d="M103.804 59.1238V61.088C103.808 61.2835 103.773 61.4779 103.7 61.6593C103.627 61.8408 103.518 62.0055 103.379 62.1436C103.241 62.2817 103.076 62.3902 102.894 62.4625C102.712 62.5349 102.518 62.5696 102.322 62.5646C101.931 62.5634 101.556 62.4074 101.28 62.1308C101.003 61.8541 100.847 61.4792 100.846 61.088V57.96C100.846 57.9278 100.878 57.9278 100.878 57.9002C100.878 57.8726 100.846 57.868 100.846 57.8358C100.857 57.4478 101.017 57.0789 101.291 56.8045C101.566 56.53 101.934 56.3707 102.322 56.3592C102.777 56.376 103.229 56.301 103.654 56.1387C104.079 55.9765 104.466 55.7303 104.793 55.4149C105.121 55.0995 105.381 54.7214 105.559 54.3031C105.736 53.8848 105.828 53.435 105.828 52.9805C105.828 52.526 105.736 52.0762 105.559 51.6579C105.381 51.2396 105.121 50.8615 104.793 50.5461C104.466 50.2307 104.079 49.9845 103.654 49.8223C103.229 49.66 102.777 49.585 102.322 49.6018C101.737 49.5997 101.161 49.7521 100.653 50.0437C100.145 50.3352 99.7227 50.7556 99.429 51.2624C99.3309 51.4338 99.1998 51.5839 99.0431 51.7042C98.8865 51.8244 98.7076 51.9123 98.5167 51.9628C98.3258 52.0133 98.1268 52.0254 97.9312 51.9983C97.7357 51.9713 97.5474 51.9056 97.3774 51.8052C97.2107 51.7066 97.0652 51.5761 96.9492 51.421C96.8333 51.266 96.7491 51.0895 96.7017 50.9018C96.6542 50.7141 96.6444 50.5188 96.6727 50.3273C96.701 50.1358 96.767 49.9517 96.8668 49.7858C97.3932 48.8769 98.1372 48.1131 99.0319 47.5629C99.9266 47.0128 100.944 46.6936 101.993 46.634C103.041 46.5745 104.088 46.7764 105.039 47.2217C105.991 47.6669 106.816 48.3416 107.442 49.185C108.068 50.0285 108.475 51.0142 108.625 52.0537C108.776 53.0931 108.666 54.1537 108.305 55.1401C107.944 56.1265 107.344 57.0078 106.558 57.7047C105.773 58.4017 104.826 58.8925 103.804 59.133V59.1238ZM103.804 65.7294V66.2722C103.809 66.4681 103.774 66.663 103.701 66.8449C103.629 67.0269 103.52 67.1923 103.381 67.3308C103.242 67.4694 103.077 67.5783 102.895 67.6509C102.713 67.7236 102.518 67.7584 102.322 67.7534C101.93 67.7522 101.555 67.5956 101.278 67.3179C101.001 67.0403 100.846 66.6642 100.846 66.2722V65.7294C100.852 65.3396 101.009 64.9675 101.285 64.6918C101.56 64.4162 101.933 64.2587 102.322 64.2528C102.517 64.2503 102.711 64.2868 102.891 64.3601C103.072 64.4334 103.236 64.542 103.374 64.6795C103.512 64.8171 103.621 64.9808 103.695 65.1611C103.768 65.3414 103.805 65.5346 103.804 65.7294Z" fill="#FF7C65"/>
</svg>
