<svg width="41" height="40" viewBox="0 0 41 40" fill="none" xmlns="http://www.w3.org/2000/svg">
<path d="M0 5C0 2.23858 2.23858 0 5 0H36C38.7614 0 41 2.23858 41 5V35C41 37.7614 38.7614 40 36 40H5C2.23858 40 0 37.7614 0 35V5Z" fill="#FF2D2D" fill-opacity="0.6"/>
<path d="M20.82 13.58L20 14.402L19.176 13.578C18.325 12.7259 17.2125 12.1843 16.0169 12.04C14.8213 11.8957 13.6119 12.1571 12.5826 12.7823C11.5533 13.4074 10.7638 14.3601 10.3406 15.4876C9.91747 16.6151 9.8852 17.852 10.249 19H11.854C11.4748 18.1739 11.3981 17.2408 11.6371 16.3639C11.8761 15.4869 12.4158 14.7218 13.1617 14.2024C13.9076 13.683 14.8123 13.4422 15.7178 13.5222C16.6232 13.6022 17.4717 13.9978 18.115 14.64L19.473 15.997C19.5437 16.0677 19.6277 16.1236 19.7203 16.1614C19.8129 16.1992 19.9121 16.218 20.012 16.2169C20.112 16.2158 20.2107 16.1947 20.3024 16.1549C20.3941 16.1151 20.4769 16.0573 20.546 15.985L21.88 14.64C22.5237 13.9978 23.3725 13.6022 24.2783 13.522C25.184 13.4419 26.0891 13.6824 26.8356 14.2016C27.582 14.7208 28.1225 15.4856 28.3625 16.3626C28.6026 17.2396 28.527 18.173 28.149 19H29.754C30.1149 17.8517 30.0803 16.6156 29.6557 15.4893C29.2311 14.363 28.4411 13.4116 27.412 12.7872C26.3829 12.1629 25.1742 11.9017 23.9791 12.0454C22.7841 12.1892 21.6717 12.7295 20.82 13.58ZM19.47 29.075L12.894 22.5H14.857C14.908 22.5 14.959 22.497 15.009 22.493L20 27.484L24.988 22.499H27.11L20.53 29.075C20.3894 29.2154 20.1987 29.2943 20 29.2943C19.8012 29.2943 19.6106 29.2154 19.47 29.075ZM17.42 16.415C17.3571 16.2894 17.2601 16.1839 17.1402 16.1107C17.0202 16.0375 16.8821 15.9995 16.7416 16.0009C16.6011 16.0024 16.4638 16.0433 16.3454 16.119C16.2271 16.1947 16.1323 16.3021 16.072 16.429L14.382 19.999H10.75C10.5511 19.999 10.3603 20.078 10.2197 20.2187C10.079 20.3593 10 20.5501 10 20.749C10 20.9479 10.079 21.1387 10.2197 21.2793C10.3603 21.42 10.5511 21.499 10.75 21.499H14.857C14.999 21.499 15.1382 21.4587 15.2582 21.3828C15.3782 21.3068 15.4742 21.1984 15.535 21.07L16.769 18.464L19.329 23.584C19.3865 23.6995 19.4729 23.7982 19.5798 23.8705C19.6866 23.9429 19.8103 23.9864 19.9389 23.997C20.0675 24.0075 20.1967 23.9847 20.3139 23.9308C20.4311 23.8768 20.5324 23.7936 20.608 23.689L23.306 19.953L24.436 21.243C24.5063 21.3236 24.5929 21.3882 24.6902 21.4325C24.7875 21.4768 24.8931 21.4998 25 21.5H29.25C29.4489 21.5 29.6397 21.421 29.7803 21.2803C29.921 21.1397 30 20.9489 30 20.75C30 20.5511 29.921 20.3603 29.7803 20.2197C29.6397 20.079 29.4489 20 29.25 20H25.34L23.814 18.257C23.7398 18.1721 23.6474 18.1051 23.5437 18.0609C23.4399 18.0167 23.3276 17.9964 23.215 18.0016C23.1024 18.0068 22.9924 18.0373 22.8932 18.0909C22.794 18.1444 22.7081 18.2197 22.642 18.311L20.117 21.807L17.421 16.415H17.42Z" fill="white"/>
</svg>
