<svg width="41" height="40" viewBox="0 0 41 40" fill="none" xmlns="http://www.w3.org/2000/svg">
<path d="M0 5C0 2.23858 2.23858 0 5 0H36C38.7614 0 41 2.23858 41 5V35C41 37.7614 38.7614 40 36 40H5C2.23858 40 0 37.7614 0 35V5Z" fill="#FF2D2D" fill-opacity="0.6"/>
<path d="M21.8643 23.5753C22.0298 23.2851 22.2763 23.0461 22.5755 22.8856" stroke="white" stroke-width="1.66669" stroke-linecap="round" stroke-linejoin="round"/>
<path d="M24.7554 16.4532C24.8346 16.3145 24.9525 16.2002 25.0956 16.1233" stroke="white" stroke-width="1.25002" stroke-linecap="round" stroke-linejoin="round"/>
<path d="M14.3811 15.0829C14.646 14.6186 15.0404 14.2361 15.5192 13.9792" stroke="white" stroke-width="1.66669" stroke-linecap="round" stroke-linejoin="round"/>
<path d="M16.5919 20.9064C19.128 20.9064 21.1838 18.9127 21.1838 16.4532C21.1838 13.9937 19.128 12 16.5919 12C14.0558 12 12 13.9937 12 16.4532C12 18.9127 14.0558 20.9064 16.5919 20.9064ZM25.7074 19.8178C26.4194 19.8178 27.1023 19.5435 27.6058 19.0552C28.1093 18.5669 28.3921 17.9047 28.3921 17.2142C28.3921 16.5237 28.1093 15.8614 27.6058 15.3731C27.1023 14.8849 26.4194 14.6106 25.7074 14.6106C24.9953 14.6106 24.3125 14.8849 23.809 15.3731C23.3055 15.8614 23.0226 16.5237 23.0226 17.2142C23.0226 17.9047 23.3055 18.5669 23.809 19.0552C24.3125 19.5435 24.9953 19.8178 25.7074 19.8178ZM23.2247 27.8335C25.1033 27.8335 26.6261 26.3567 26.6261 24.5349C26.6261 22.713 25.1033 21.2362 23.2247 21.2362C21.3461 21.2362 19.8233 22.713 19.8233 24.5349C19.8233 26.3567 21.3461 27.8335 23.2247 27.8335Z" fill="white"/>
<path d="M19.1431 16.4532C19.1431 17.0218 18.9101 17.5672 18.4955 17.9693C18.0809 18.3714 17.5185 18.5973 16.9321 18.5973" stroke="#EDEBEB" stroke-width="4.16672" stroke-linecap="round" stroke-linejoin="round"/>
<path d="M25.2656 24.5349C25.2656 24.9723 25.0865 25.3918 24.7675 25.7011C24.4486 26.0104 24.016 26.1842 23.5649 26.1842" stroke="#EDEBEB" stroke-width="2.50003" stroke-linecap="round" stroke-linejoin="round"/>
<path d="M27.1364 17.4428C27.1364 17.7052 27.0289 17.9569 26.8375 18.1425C26.6461 18.3281 26.3866 18.4324 26.116 18.4324" stroke="#EDEBEB" stroke-width="2.08336" stroke-linecap="round" stroke-linejoin="round"/>
<path d="M16.9321 20.9064C19.4682 20.9064 21.524 18.9127 21.524 16.4532C21.524 13.9937 19.4682 12 16.9321 12C14.396 12 12.3402 13.9937 12.3402 16.4532C12.3402 18.9127 14.396 20.9064 16.9321 20.9064ZM25.9459 19.9168C26.6676 19.9168 27.3597 19.6387 27.87 19.1438C28.3803 18.649 28.667 17.9777 28.667 17.2778C28.667 16.578 28.3803 15.9067 27.87 15.4118C27.3597 14.917 26.6676 14.6389 25.9459 14.6389C25.2242 14.6389 24.5321 14.917 24.0217 15.4118C23.5114 15.9067 23.2247 16.578 23.2247 17.2778C23.2247 17.9777 23.5114 18.649 24.0217 19.1438C24.5321 19.6387 25.2242 19.9168 25.9459 19.9168ZM23.5649 27.8335C25.4435 27.8335 26.9663 26.3567 26.9663 24.5349C26.9663 22.713 25.4435 21.2362 23.5649 21.2362C21.6863 21.2362 20.1635 22.713 20.1635 24.5349C20.1635 26.3567 21.6863 27.8335 23.5649 27.8335Z" stroke="white" stroke-width="0.833344" stroke-linecap="round" stroke-linejoin="round"/>
<path d="M23.565 27.8335C25.4436 27.8335 26.9664 26.3567 26.9664 24.5349C26.9664 22.713 25.4436 21.2362 23.565 21.2362C21.6863 21.2362 20.1635 22.713 20.1635 24.5349C20.1635 26.3567 21.6863 27.8335 23.565 27.8335Z" stroke="white" stroke-width="0.833344" stroke-linecap="round" stroke-linejoin="round"/>
</svg>
