<svg width="42" height="36" viewBox="0 0 42 36" fill="none" xmlns="http://www.w3.org/2000/svg">
<g filter="url(#filter0_d_2_10331)">
<path d="M2 6C2 3.23858 4.23858 1 7 1H35C37.7614 1 40 3.23858 40 6V28C40 30.7614 37.7614 33 35 33H7C4.23858 33 2 30.7614 2 28V6Z" fill="url(#paint0_linear_2_10331)"/>
<path fill-rule="evenodd" clip-rule="evenodd" d="M19.7536 20.5C19.5926 20.5 19.4386 20.4335 19.3283 20.3163L16.4916 17.2952C16.2705 17.0607 16.2828 16.6914 16.5173 16.4709C16.7523 16.2504 17.1216 16.2621 17.3415 16.4966L19.7478 19.058L24.6524 13.6902C24.8706 13.4516 25.2393 13.4358 25.4773 13.6528C25.7147 13.8698 25.731 14.2391 25.514 14.4765L20.1841 20.3098C20.075 20.43 19.9198 20.4988 19.7577 20.5H19.7536Z" fill="#FBFBFB"/>
</g>
<defs>
<filter id="filter0_d_2_10331" x="0" y="0" width="42" height="36" filterUnits="userSpaceOnUse" color-interpolation-filters="sRGB">
<feFlood flood-opacity="0" result="BackgroundImageFix"/>
<feColorMatrix in="SourceAlpha" type="matrix" values="0 0 0 0 0 0 0 0 0 0 0 0 0 0 0 0 0 0 127 0" result="hardAlpha"/>
<feOffset dy="1"/>
<feGaussianBlur stdDeviation="1"/>
<feComposite in2="hardAlpha" operator="out"/>
<feColorMatrix type="matrix" values="0 0 0 0 0 0 0 0 0 0 0 0 0 0 0 0 0 0 0.25 0"/>
<feBlend mode="normal" in2="BackgroundImageFix" result="effect1_dropShadow_2_10331"/>
<feBlend mode="normal" in="SourceGraphic" in2="effect1_dropShadow_2_10331" result="shape"/>
</filter>
<linearGradient id="paint0_linear_2_10331" x1="8.03974" y1="-37.9091" x2="58.1211" y2="-26.0632" gradientUnits="userSpaceOnUse">
<stop offset="0.00315941" stop-color="#FF7594"/>
<stop offset="0.942708" stop-color="#FF7C65"/>
</linearGradient>
</defs>
</svg>
