<svg width="44" height="44" viewBox="0 0 44 44" fill="none" xmlns="http://www.w3.org/2000/svg">
<g filter="url(#filter0_d_38_20670)">
<circle cx="22" cy="20" r="17" fill="#FF7594"/>
</g>
<path d="M25.6941 13.3082C25.89 13.5055 26 13.7732 26 14.0523C26 14.3314 25.89 14.599 25.6941 14.7964L20.5221 20.0064L25.6941 25.2163C25.8844 25.4148 25.9897 25.6807 25.9873 25.9566C25.985 26.2326 25.8751 26.4966 25.6814 26.6917C25.4876 26.8869 25.2256 26.9976 24.9516 27C24.6777 27.0024 24.4137 26.8963 24.2167 26.7045L18.3059 20.7505C18.11 20.5531 18 20.2854 18 20.0064C18 19.7273 18.11 19.4596 18.3059 19.2622L24.2167 13.3082C24.4126 13.1108 24.6783 13 24.9554 13C25.2324 13 25.4981 13.1108 25.6941 13.3082Z" fill="white"/>
<defs>
<filter id="filter0_d_38_20670" x="0" y="0" width="44" height="44" filterUnits="userSpaceOnUse" color-interpolation-filters="sRGB">
<feFlood flood-opacity="0" result="BackgroundImageFix"/>
<feColorMatrix in="SourceAlpha" type="matrix" values="0 0 0 0 0 0 0 0 0 0 0 0 0 0 0 0 0 0 127 0" result="hardAlpha"/>
<feOffset dy="2"/>
<feGaussianBlur stdDeviation="2.5"/>
<feComposite in2="hardAlpha" operator="out"/>
<feColorMatrix type="matrix" values="0 0 0 0 0 0 0 0 0 0 0 0 0 0 0 0 0 0 0.25 0"/>
<feBlend mode="normal" in2="BackgroundImageFix" result="effect1_dropShadow_38_20670"/>
<feBlend mode="normal" in="SourceGraphic" in2="effect1_dropShadow_38_20670" result="shape"/>
</filter>
</defs>
</svg>
