<svg width="83" height="41" viewBox="0 0 83 41" fill="none" xmlns="http://www.w3.org/2000/svg">
<path d="M0 20.1212C0 9.00857 9.00857 0 20.1212 0H62.8788C73.9914 0 83 9.00857 83 20.1212V20.1212C83 31.2339 73.9914 40.2424 62.8788 40.2424H20.1212C9.00858 40.2424 0 31.2339 0 20.1212V20.1212Z" fill="white"/>
<circle cx="20.1212" cy="20.1212" r="19.2828" fill="#263238"/>
<g clip-path="url(#clip0_38_14469)">
<path d="M18.0252 12.0287C18.1275 12.153 18.1902 12.3051 18.2052 12.4654C18.2201 12.6257 18.1866 12.7868 18.1091 12.9278C17.5032 14.0402 17.1868 15.2871 17.189 16.5538C17.189 20.7678 20.6242 24.18 24.8581 24.18C25.4104 24.18 25.948 24.1224 26.4646 24.0123C26.623 23.978 26.788 23.9911 26.9389 24.05C27.0899 24.1089 27.2202 24.211 27.3135 24.3435C27.412 24.4812 27.4622 24.6477 27.4563 24.8169C27.4505 24.9862 27.3888 25.1487 27.281 25.2793C26.4591 26.289 25.4221 27.1025 24.2459 27.6605C23.0696 28.2186 21.7836 28.5071 20.4817 28.505C15.6505 28.505 11.7374 24.6128 11.7374 19.8173C11.7374 16.208 13.9528 13.1123 17.1072 11.8002C17.2643 11.7338 17.4388 11.7202 17.6043 11.7614C17.7699 11.8026 17.9176 11.8964 18.0252 12.0287ZM16.8285 13.1112C15.6155 13.7618 14.6015 14.7289 13.8942 15.9097C13.187 17.0905 12.8128 18.4408 12.8115 19.8173C12.8115 24.0301 16.2479 27.4424 20.4817 27.4424C21.4956 27.4441 22.4997 27.2448 23.436 26.8558C24.3723 26.4669 25.2222 25.8962 25.9364 25.1766C25.5833 25.2206 25.2238 25.2426 24.8581 25.2426C20.0269 25.2426 16.1148 21.3504 16.1148 16.5549C16.1148 15.3319 16.3684 14.1676 16.8285 13.1112Z" fill="white"/>
<path d="M23.0493 15.0364C23.0644 14.991 23.0933 14.9515 23.1321 14.9236C23.1708 14.8956 23.2174 14.8805 23.2652 14.8805C23.313 14.8805 23.3596 14.8956 23.3984 14.9236C23.4371 14.9515 23.4661 14.991 23.4811 15.0364L23.8867 16.2542C24.068 16.797 24.4934 17.2225 25.0363 17.4038L26.2541 17.8094C26.2994 17.8244 26.3389 17.8534 26.3669 17.8921C26.3949 17.9309 26.41 17.9775 26.41 18.0253C26.41 18.0731 26.3949 18.1197 26.3669 18.1584C26.3389 18.1972 26.2994 18.2261 26.2541 18.2411L25.0363 18.6467C24.7686 18.7359 24.5253 18.8862 24.3257 19.0858C24.1262 19.2853 23.9759 19.5286 23.8867 19.7963L23.4811 21.0141C23.4661 21.0595 23.4371 21.099 23.3984 21.127C23.3596 21.155 23.313 21.17 23.2652 21.17C23.2174 21.17 23.1708 21.155 23.1321 21.127C23.0933 21.099 23.0644 21.0595 23.0493 21.0141L22.6438 19.7963C22.5546 19.5286 22.4042 19.2853 22.2047 19.0858C22.0051 18.8862 21.7619 18.7359 21.4941 18.6467L20.2764 18.2411C20.231 18.2261 20.1915 18.1972 20.1635 18.1584C20.1355 18.1197 20.1205 18.0731 20.1205 18.0253C20.1205 17.9775 20.1355 17.9309 20.1635 17.8921C20.1915 17.8534 20.231 17.8244 20.2764 17.8094L21.4941 17.4038C21.7619 17.3146 22.0051 17.1643 22.2047 16.9647C22.4042 16.7652 22.5546 16.5219 22.6438 16.2542L23.0493 15.0364ZM26.2656 11.8411C26.2759 11.8113 26.2953 11.7854 26.321 11.7671C26.3468 11.7488 26.3776 11.739 26.4092 11.739C26.4407 11.739 26.4715 11.7488 26.4973 11.7671C26.523 11.7854 26.5424 11.8113 26.5527 11.8411L26.8231 12.6523C26.9436 13.0149 27.2276 13.2989 27.5902 13.4194L28.4014 13.6898C28.4312 13.7001 28.4571 13.7195 28.4754 13.7452C28.4937 13.771 28.5035 13.8018 28.5035 13.8333C28.5035 13.8649 28.4937 13.8957 28.4754 13.9215C28.4571 13.9472 28.4312 13.9666 28.4014 13.9769L27.5902 14.2473C27.4115 14.3067 27.2492 14.407 27.116 14.5402C26.9828 14.6734 26.8826 14.8357 26.8231 15.0144L26.5527 15.8256C26.5424 15.8554 26.523 15.8813 26.4973 15.8996C26.4715 15.9179 26.4407 15.9277 26.4092 15.9277C26.3776 15.9277 26.3468 15.9179 26.321 15.8996C26.2953 15.8813 26.2759 15.8554 26.2656 15.8256L25.9952 15.0144C25.9358 14.8357 25.8355 14.6734 25.7023 14.5402C25.5691 14.407 25.4068 14.3067 25.2281 14.2473L24.4169 13.9769C24.3871 13.9666 24.3612 13.9472 24.3429 13.9215C24.3246 13.8957 24.3148 13.8649 24.3148 13.8333C24.3148 13.8018 24.3246 13.771 24.3429 13.7452C24.3612 13.7195 24.3871 13.7001 24.4169 13.6898L25.2281 13.4194C25.5907 13.2989 25.8747 13.0149 25.9952 12.6523L26.2656 11.8422V11.8411Z" fill="white"/>
</g>
<path d="M20.1212 1H62.8788V-1H20.1212V1ZM62.8788 39.2424H20.1212V41.2424H62.8788V39.2424ZM20.1212 39.2424C9.56086 39.2424 1 30.6816 1 20.1212H-1C-1 31.7861 8.45629 41.2424 20.1212 41.2424V39.2424ZM82 20.1212C82 30.6816 73.4391 39.2424 62.8788 39.2424V41.2424C74.5437 41.2424 84 31.7861 84 20.1212H82ZM62.8788 1C73.4391 1 82 9.56086 82 20.1212H84C84 8.45629 74.5437 -1 62.8788 -1V1ZM20.1212 -1C8.45629 -1 -1 8.45629 -1 20.1212H1C1 9.56086 9.56086 1 20.1212 1V-1Z" fill="#DBDBDB"/>
<defs>
<clipPath id="clip0_38_14469">
<rect width="16.7677" height="16.7677" fill="white" transform="translate(11.7374 11.7374)"/>
</clipPath>
</defs>
</svg>
