<svg width="83" height="41" viewBox="0 0 83 41" fill="none" xmlns="http://www.w3.org/2000/svg">
<path d="M0 20.1212C0 9.00857 9.00857 0 20.1212 0H62.8788C73.9914 0 83 9.00857 83 20.1212V20.1212C83 31.2339 73.9914 40.2424 62.8788 40.2424H20.1212C9.00858 40.2424 0 31.2339 0 20.1212V20.1212Z" fill="white"/>
<circle cx="62.8788" cy="20.1212" r="19.2828" fill="#FFEBEB"/>
<path d="M59.0469 16.9438C57.6477 18.7422 57.6722 21.9368 59.4605 23.5204C61.4908 25.3173 64.3483 25.2986 66.1452 23.6458C68.2994 21.663 68.1755 18.3632 66.2705 16.4943C64.3555 14.6152 60.9332 14.5172 59.0469 16.9438Z" fill="#FCC11A"/>
<path d="M61.2935 16.3271C60.7401 16.0822 60.1349 16.7493 59.8712 17.2047C59.6075 17.6615 59.3625 18.5563 59.9245 18.7854C60.4865 19.0131 60.89 18.6269 61.2949 17.9598C61.6969 17.2926 61.926 16.6081 61.2935 16.3271Z" fill="#FEE269"/>
<path d="M62.7341 13.8198C62.6001 14.0706 62.6448 14.2637 62.9113 14.3271C63.1779 14.3905 64.8365 14.6599 64.9763 14.6686C65.1794 14.6815 65.2544 14.5288 65.2299 14.3516C65.2039 14.1743 64.799 11.6915 64.7616 11.4639C64.7241 11.2362 64.4834 11.0085 64.2543 11.3126C64.0252 11.6166 62.835 13.6311 62.7341 13.8198ZM67.0282 15.5432C66.7674 15.6239 66.7746 15.7839 66.9144 15.9871C67.0541 16.1902 68.0167 17.6586 68.1046 17.7609C68.1939 17.8618 68.3453 17.8877 68.4721 17.735C68.5989 17.5837 70.1811 15.3646 70.2963 15.2262C70.4865 14.9986 70.3727 14.7579 70.0816 14.8328C69.8597 14.8919 67.1925 15.4928 67.0282 15.5432ZM69.0167 19.8128C68.8294 19.7062 68.5859 19.7365 68.5225 19.9771C68.4591 20.2178 68.181 21.9657 68.155 22.1184C68.1291 22.2711 68.2444 22.4224 68.4332 22.385C68.6219 22.3475 71.2358 21.9599 71.4102 21.9167C71.7142 21.8403 71.8151 21.5363 71.4995 21.3086C71.2949 21.1602 69.194 19.9137 69.0167 19.8128ZM66.9259 23.9542C67.1276 23.8461 67.3063 23.9283 67.3567 24.1574C67.4072 24.3851 67.9648 26.7165 68.0542 27.1474C68.0988 27.3635 67.851 27.5408 67.6493 27.414C67.4461 27.2872 65.2443 25.7525 65.1031 25.6272C64.8999 25.4499 65.0411 25.2655 65.1405 25.1718C65.3423 24.9802 66.7357 24.0565 66.9259 23.9542ZM60.7946 25.2338C60.5395 25.2093 60.4646 25.437 60.5035 25.6387C60.5409 25.8419 60.9214 28.4111 60.9473 28.6028C60.9848 28.8809 61.2773 28.9962 61.4661 28.7166C61.6548 28.4371 62.9575 26.3534 63.0626 26.1574C63.2529 25.803 63.1131 25.7266 62.9229 25.6387C62.7341 25.5508 61.0611 25.2597 60.7946 25.2338ZM57.1475 22.2827C57.3247 21.9916 57.5524 22.068 57.7181 22.3461C57.8305 22.5363 58.7815 23.8159 58.8709 23.9542C58.9602 24.094 58.9977 24.3591 58.7196 24.4225C58.4386 24.4874 56.1719 25.0825 55.8174 25.1459C55.463 25.2093 55.2598 24.9312 55.4875 24.6271C55.62 24.4485 57.0466 22.4484 57.1475 22.2827ZM56.6662 20.078C56.9904 20.2221 57.1431 20.1702 57.2109 19.9382C57.3002 19.6342 57.5653 18.2407 57.5783 17.9237C57.587 17.7177 57.5019 17.5188 57.1849 17.5693C56.8679 17.6197 54.5883 17.9381 54.2972 18.039C53.9586 18.1572 53.9831 18.5289 54.2079 18.6471C54.4745 18.7869 56.4371 19.9771 56.6662 20.078ZM60.6058 14.7579C60.7888 14.6124 60.7326 14.4034 60.5683 14.2896C60.4041 14.1758 58.3694 12.7045 58.1115 12.5028C57.8838 12.3256 57.6042 12.389 57.6806 12.7939C57.7354 13.0849 58.3838 15.6326 58.4285 15.8084C58.4789 16.0116 58.6317 16.1124 58.8089 15.9856C58.9833 15.8603 60.4156 14.9107 60.6058 14.7579Z" fill="#FFA722"/>
<path d="M20.1212 1H62.8788V-1H20.1212V1ZM62.8788 39.2424H20.1212V41.2424H62.8788V39.2424ZM20.1212 39.2424C9.56086 39.2424 1 30.6816 1 20.1212H-1C-1 31.7861 8.45629 41.2424 20.1212 41.2424V39.2424ZM82 20.1212C82 30.6816 73.4391 39.2424 62.8788 39.2424V41.2424C74.5437 41.2424 84 31.7861 84 20.1212H82ZM62.8788 1C73.4391 1 82 9.56086 82 20.1212H84C84 8.45629 74.5437 -1 62.8788 -1V1ZM20.1212 -1C8.45629 -1 -1 8.45629 -1 20.1212H1C1 9.56086 9.56086 1 20.1212 1V-1Z" fill="#FDDAD6"/>
</svg>
